<?xml version="1.0" encoding="utf-8"?>
<!-- Generator: Adobe Illustrator 14.0.0, SVG Export Plug-In  -->
<!DOCTYPE svg PUBLIC "-//W3C//DTD SVG 1.1//EN" "http://www.w3.org/Graphics/SVG/1.1/DTD/svg11.dtd" [
	<!ENTITY ns_flows "http://ns.adobe.com/Flows/1.0/">
]>
<svg version="1.1"
	 xmlns="http://www.w3.org/2000/svg" xmlns:xlink="http://www.w3.org/1999/xlink" xmlns:a="http://ns.adobe.com/AdobeSVGViewerExtensions/3.0/"
	 x="0px" y="0px" width="119px" height="56px" viewBox="-0.589 -0.161 119 56" enable-background="new -0.589 -0.161 119 56"
	 xml:space="preserve">
<defs>
</defs>
<path fill="#005498" d="M54.599,4.626h1.45l2.911,8.943h-1.277l-0.643-2.131h-3.456l-0.669,2.131h-1.152L54.599,4.626z
	 M55.293,5.678h-0.024l-1.4,4.769h2.862L55.293,5.678z"/>
<path fill="#005498" d="M62.797,13.569V9.233c0-0.631-0.174-1.213-0.991-1.213c-0.309,0-0.73,0.186-0.878,0.421
	c-0.186,0.31-0.235,0.681-0.235,0.917v4.211h-1.017V8.615c0-0.435-0.024-0.868-0.061-1.302h1.077v0.78h0.024
	c0.297-0.668,0.83-0.904,1.561-0.904c0.57,0,1.228,0.235,1.463,0.807c0.347-0.669,0.916-0.807,1.486-0.807
	c0.655,0,1.709,0.148,1.709,1.624v4.755H65.92V9.233c0-0.631-0.173-1.213-0.99-1.213c-0.386,0-0.496,0.013-0.769,0.234
	c-0.298,0.248-0.348,0.868-0.348,1.103v4.211H62.797z"/>
<path fill="#005498" d="M69.349,10.771c0,1.746,0.47,2.093,1.264,2.093c0.692,0,1.054-0.558,1.09-1.189h1.114
	c-0.011,1.388-0.866,2.02-2.181,2.02c-1.324,0-2.377-0.396-2.377-3.158c0-1.834,0.21-3.345,2.377-3.345
	c1.785,0,2.23,0.979,2.23,3.047v0.533H69.349z M71.789,10.002c0-1.822-0.508-2.046-1.252-2.046c-0.644,0-1.176,0.311-1.188,2.046
	H71.789z"/>
<path fill="#005498" d="M75.294,8.254h0.024c0.422-0.953,0.941-1.065,1.933-1.065v1.053c-0.186-0.025-0.359-0.061-0.546-0.061
	c-1.125,0-1.411,0.854-1.411,1.697v3.691h-1.017V7.313h1.017V8.254z"/>
<path fill="#005498" d="M78.205,4.626h1.14v1.089h-1.14V4.626z M79.282,13.569h-1.016V7.313h1.016V13.569z"/>
<path fill="#005498" d="M83.765,9.32c0.025-1.027-0.483-1.3-0.867-1.3c-0.781,0-1.312,0.372-1.312,2.081
	c0,2.031,0.26,2.763,1.312,2.763c0.235,0,0.941-0.248,0.904-1.374h1.066c0.036,1.757-1.276,2.204-1.971,2.204
	c-1.324,0-2.379-0.396-2.379-3.158c0-1.833,0.211-3.346,2.379-3.346c1.251,0,1.981,0.73,1.919,2.13H83.765z"/>
<path fill="#005498" d="M89.288,12.665h-0.025c-0.31,0.719-0.793,1.029-1.572,1.029c-1.326,0-1.71-0.855-1.71-2.057
	c0-1.895,1.858-1.982,3.282-1.945c0.025-0.829,0.037-1.734-1.052-1.734c-0.682,0-1.041,0.458-0.979,1.115h-1.104
	c0.052-1.4,0.795-1.883,2.12-1.883c1.61,0,2.031,0.831,2.031,1.883v3.01c0,0.495,0.05,1.004,0.124,1.486h-1.115V12.665z
	 M86.995,11.711c0,0.606,0.299,1.151,0.979,1.151c0.619,0,1.389-0.383,1.288-2.402C88.298,10.473,86.995,10.386,86.995,11.711"/>
<path fill="#005498" d="M95.345,13.569V9.233c0-0.668-0.235-1.213-1.103-1.213c-1.115,0-1.277,0.991-1.277,1.845v3.704h-1.014V8.615
	c0-0.435-0.026-0.868-0.063-1.302h1.077V8.12h0.051c0.397-0.706,0.867-0.93,1.673-0.93c1.338,0,1.672,0.807,1.672,2.043v4.336
	H95.345z"/>
<path fill="#005498" d="M54.599,16.157h1.45L58.96,25.1h-1.277l-0.643-2.131h-3.456L52.915,25.1h-1.152L54.599,16.157z
	 M55.293,17.209h-0.024l-1.4,4.769h2.862L55.293,17.209z"/>
<path fill="#005498" d="M61.57,25.224c-1.349,0-2.19-0.595-2.154-2.031h1.152c0,0.358,0.012,1.202,1.039,1.202
	c0.606,0,1.08-0.311,1.08-0.955c0-1.115-3.123-1.14-3.123-3.01c0-0.657,0.396-1.71,2.155-1.71c1.116,0,2.068,0.533,1.981,1.771
	h-1.126c0.012-0.657-0.335-1.003-0.979-1.003c-0.544,0-0.966,0.297-0.966,0.842c0,1.102,3.122,1.077,3.122,2.986
	C63.752,24.691,62.811,25.224,61.57,25.224"/>
<path fill="#005498" d="M66.761,25.224c-1.351,0-2.193-0.595-2.155-2.031h1.151c0,0.358,0.013,1.202,1.04,1.202
	c0.608,0,1.078-0.311,1.078-0.955c0-1.115-3.121-1.14-3.121-3.01c0-0.657,0.395-1.71,2.155-1.71c1.114,0,2.069,0.533,1.982,1.771
	h-1.128c0.013-0.657-0.334-1.003-0.979-1.003c-0.545,0-0.968,0.297-0.968,0.842c0,1.102,3.124,1.077,3.124,2.986
	C68.941,24.691,67.998,25.224,66.761,25.224"/>
<path fill="#005498" d="M69.931,22.066c0-1.834,0.21-3.346,2.379-3.346c2.167,0,2.376,1.511,2.376,3.346
	c0,2.763-1.052,3.158-2.376,3.158C70.983,25.224,69.931,24.829,69.931,22.066 M73.622,21.631c0-1.71-0.534-2.082-1.312-2.082
	c-0.781,0-1.315,0.372-1.315,2.082c0,2.031,0.262,2.763,1.315,2.763C73.362,24.395,73.622,23.663,73.622,21.631"/>
<path fill="#005498" d="M78.947,20.851c0.024-1.027-0.483-1.301-0.868-1.301c-0.78,0-1.312,0.372-1.312,2.082
	c0,2.031,0.26,2.763,1.312,2.763c0.236,0,0.941-0.248,0.904-1.375h1.066c0.036,1.757-1.276,2.204-1.971,2.204
	c-1.324,0-2.378-0.396-2.378-3.159c0-1.833,0.211-3.345,2.378-3.345c1.252,0,1.983,0.731,1.92,2.13H78.947z"/>
<path fill="#005498" d="M81.163,16.157h1.14v1.088h-1.14V16.157z M82.24,25.1h-1.017v-6.256h1.017V25.1z"/>
<path fill="#005498" d="M86.91,24.195h-0.024c-0.31,0.719-0.793,1.029-1.573,1.029c-1.326,0-1.709-0.856-1.709-2.056
	c0-1.896,1.858-1.982,3.282-1.946c0.024-0.829,0.036-1.734-1.054-1.734c-0.681,0-1.04,0.458-0.978,1.115h-1.104
	c0.05-1.4,0.793-1.883,2.119-1.883c1.61,0,2.031,0.83,2.031,1.883v3.01c0,0.495,0.049,1.004,0.124,1.486H86.91V24.195z
	 M84.619,23.242c0,0.606,0.298,1.152,0.978,1.152c0.62,0,1.389-0.384,1.289-2.403C85.919,22.004,84.619,21.917,84.619,23.242"/>
<path fill="#005498" d="M89.685,18.844v-1.202l1.015-0.458v1.66h1.362v0.769h-1.362v3.827c0,0.397,0,0.904,0.93,0.904
	c0.076,0,0.236-0.024,0.458-0.049v0.781c-0.335,0.024-0.668,0.099-1.003,0.099c-0.967,0-1.399-0.397-1.399-1.115v-4.447h-1.028
	v-0.769H89.685z"/>
<path fill="#005498" d="M93.046,16.157h1.14v1.088h-1.14V16.157z M94.125,25.1h-1.016v-6.256h1.016V25.1z"/>
<path fill="#005498" d="M94.973,22.066c0-1.834,0.21-3.346,2.378-3.346c2.167,0,2.377,1.511,2.377,3.346
	c0,2.763-1.052,3.158-2.377,3.158C96.024,25.224,94.973,24.829,94.973,22.066 M98.663,21.631c0-1.71-0.533-2.082-1.312-2.082
	c-0.78,0-1.314,0.372-1.314,2.082c0,2.031,0.261,2.763,1.314,2.763S98.663,23.663,98.663,21.631"/>
<path fill="#005498" d="M104.423,25.1v-4.335c0-0.67-0.235-1.214-1.104-1.214c-1.113,0-1.275,0.991-1.275,1.846V25.1h-1.017v-4.954
	c0-0.435-0.024-0.868-0.062-1.302h1.078v0.807h0.049c0.397-0.706,0.868-0.93,1.673-0.93c1.337,0,1.672,0.807,1.672,2.044V25.1
	H104.423z"/>
<path fill="#005498" d="M109.177,22.066c0-1.834,0.211-3.346,2.379-3.346c2.167,0,2.379,1.511,2.379,3.346
	c0,2.763-1.054,3.158-2.379,3.158C110.229,25.224,109.177,24.829,109.177,22.066 M112.869,21.631c0-1.71-0.532-2.082-1.313-2.082
	c-0.78,0-1.312,0.372-1.312,2.082c0,2.031,0.26,2.763,1.312,2.763C112.607,24.395,112.869,23.663,112.869,21.631"/>
<path fill="#005498" d="M115.42,18.844V17.63c0-1.264,0.892-1.512,1.796-1.512c0.21,0,0.333,0.012,0.482,0.038v0.731
	c-1.078-0.074-1.264,0.383-1.264,0.891v1.065h1.264v0.769h-1.264V25.1h-1.015v-5.487h-0.967v-0.769H115.42z"/>
<path fill="#005498" d="M52.117,33.36v-2.936c0-1.785,0.915-2.924,2.811-2.924s2.812,1.14,2.812,2.924v2.936
	c0,2.479-0.917,3.457-2.812,3.457S52.117,35.839,52.117,33.36 M56.575,33.411v-3.022c0-1.873-1.287-1.935-1.647-1.935
	c-0.359,0-1.647,0.062-1.647,1.935v3.022c0,1.957,0.57,2.451,1.647,2.451C56.006,35.862,56.575,35.368,56.575,33.411"/>
<path fill="#005498" d="M59.801,31.316h0.024c0.422-0.953,0.941-1.065,1.933-1.065v1.053c-0.186-0.025-0.359-0.062-0.545-0.062
	c-1.126,0-1.412,0.855-1.412,1.696v3.692h-1.016v-6.255h1.016V31.316z"/>
<path fill="#005498" d="M63.224,30.375v-1.202l1.017-0.458v1.66h1.362v0.768H64.24v3.828c0,0.397,0,0.904,0.93,0.904
	c0.074,0,0.233-0.024,0.459-0.05v0.779c-0.336,0.025-0.669,0.101-1.006,0.101c-0.965,0-1.399-0.397-1.399-1.115v-4.447h-1.026
	v-0.768H63.224z"/>
<path fill="#005498" d="M70.067,36.63v-4.234c0-0.77-0.247-1.314-1.114-1.314c-1.017,0-1.277,0.818-1.277,1.87v3.679H66.66v-8.942
	h1.016v3.494h0.051c0.409-0.731,0.879-0.931,1.696-0.931c1.066,0,1.66,0.533,1.66,1.946v4.433H70.067z"/>
<path fill="#005498" d="M72.383,33.596c0-1.833,0.21-3.345,2.379-3.345c2.167,0,2.377,1.512,2.377,3.345
	c0,2.764-1.053,3.16-2.377,3.16C73.436,36.756,72.383,36.359,72.383,33.596 M76.074,33.162c0-1.71-0.533-2.081-1.312-2.081
	c-0.781,0-1.314,0.371-1.314,2.081c0,2.032,0.26,2.764,1.314,2.764C75.815,35.926,76.074,35.194,76.074,33.162"/>
<path fill="#005498" d="M81.623,27.688h1.016v8.942h-1.016v-0.741h-0.024c-0.348,0.581-0.781,0.867-1.439,0.867
	c-1.001,0-2.019-0.398-2.019-3.148c0-1.56,0.051-3.356,2.069-3.356c0.596,0,1.029,0.261,1.375,0.755h0.038V27.688z M80.445,31.081
	c-1.089,0-1.238,0.867-1.238,2.54c0,0.94,0,2.305,1.276,2.305c1.14,0,1.14-1.413,1.14-2.677
	C81.623,32.419,81.572,31.081,80.445,31.081"/>
<path fill="#005498" d="M83.899,33.596c0-1.833,0.213-3.345,2.379-3.345c2.17,0,2.38,1.512,2.38,3.345c0,2.764-1.054,3.16-2.38,3.16
	C84.955,36.756,83.899,36.359,83.899,33.596 M87.592,33.162c0-1.71-0.532-2.081-1.313-2.081c-0.78,0-1.312,0.371-1.312,2.081
	c0,2.032,0.261,2.764,1.312,2.764C87.331,35.926,87.592,35.194,87.592,33.162"/>
<path fill="#005498" d="M93.351,36.63v-4.335c0-0.669-0.235-1.214-1.103-1.214c-1.114,0-1.276,0.99-1.276,1.846v3.703h-1.015v-4.954
	c0-0.435-0.025-0.868-0.063-1.301h1.078v0.807h0.05c0.396-0.706,0.867-0.931,1.674-0.931c1.338,0,1.671,0.808,1.671,2.044v4.335
	H93.351z"/>
<path fill="#005498" d="M95.951,30.375v-1.202l1.016-0.458v1.66h1.363v0.768h-1.363v3.828c0,0.397,0,0.904,0.93,0.904
	c0.073,0,0.235-0.024,0.456-0.05v0.779c-0.333,0.025-0.669,0.101-1.002,0.101c-0.966,0-1.399-0.397-1.399-1.115v-4.447h-1.028
	v-0.768H95.951z"/>
<path fill="#005498" d="M99.312,27.687h1.139v1.088h-1.139V27.687z M100.39,36.63h-1.016v-6.255h1.016V36.63z"/>
<path fill="#005498" d="M103.258,36.756c-1.349,0-2.192-0.597-2.155-2.032h1.152c0,0.358,0.012,1.202,1.04,1.202
	c0.606,0,1.079-0.311,1.079-0.955c0-1.114-3.122-1.14-3.122-3.01c0-0.657,0.396-1.71,2.154-1.71c1.115,0,2.068,0.533,1.981,1.772
	h-1.125c0.012-0.658-0.335-1.006-0.979-1.006c-0.546,0-0.965,0.299-0.965,0.844c0,1.104,3.119,1.076,3.119,2.985
	C105.438,36.223,104.498,36.756,103.258,36.756"/>
<path fill="#005498" d="M106.714,30.375v-1.202l1.015-0.458v1.66h1.362v0.768h-1.362v3.828c0,0.397,0,0.904,0.93,0.904
	c0.075,0,0.235-0.024,0.458-0.05v0.779c-0.335,0.025-0.669,0.101-1.004,0.101c-0.966,0-1.398-0.397-1.398-1.115v-4.447h-1.028
	v-0.768H106.714z"/>
<path fill="#005498" d="M111.581,36.756c-1.351,0-2.192-0.597-2.156-2.032h1.151c0,0.358,0.014,1.202,1.04,1.202
	c0.608,0,1.079-0.311,1.079-0.955c0-1.114-3.121-1.14-3.121-3.01c0-0.657,0.396-1.71,2.154-1.71c1.114,0,2.068,0.533,1.982,1.772
	h-1.127c0.012-0.658-0.334-1.006-0.979-1.006c-0.545,0-0.966,0.299-0.966,0.844c0,1.104,3.121,1.076,3.121,2.985
	C113.761,36.223,112.82,36.756,111.581,36.756"/>
<path fill="#005498" d="M21.357,35.41h-0.062C12.407,35.398,4.638,32.415,0,27.429v10.515c0,1.965,1.701,3.557,3.801,3.557h35.008
	c2.1,0,3.8-1.592,3.8-3.557V27.57C37.929,32.484,30.19,35.41,21.357,35.41"/>
<polygon fill="#00A6DB" points="17.415,18.158 22.408,18.158 19.887,11.55 "/>
<path fill="#00A6DB" d="M42.608,10.093V3.558c0-1.965-1.7-3.558-3.8-3.558H3.801C1.701,0,0,1.593,0,3.558v12.685l3.54-8.848h3.908
	l7.327,17.81h-4.021L9.158,21.16H1.843l-1.109,2.973c3.843,5.333,11.538,8.597,20.567,8.608h0.058c9.544,0,17.613-3.621,21.25-9.498
	v-1.584c-1.72,2.2-4.398,3.618-7.409,3.618c-2.012,0-3.875-0.634-5.404-1.712l-3.865-9.255c0.746-4.448,4.61-7.837,9.27-7.837
	C38.21,6.472,40.889,7.891,42.608,10.093 M29.212,25.205h-4.021l-1.598-4.045H16.28l-0.938,2.514l-1.98-4.742l4.616-11.537h3.907
	L29.212,25.205z"/>
<path fill="#00A6DB" d="M29.586,15.875c0,3.101,2.513,5.614,5.613,5.614s5.613-2.513,5.613-5.614c0-3.1-2.513-5.614-5.613-5.614
	S29.586,12.775,29.586,15.875"/>
<polygon fill="#00A6DB" points="2.979,18.158 7.972,18.158 5.451,11.55 "/>
<polygon fill="#005498" points="45.503,38.055 45.503,38.363 44.773,38.363 44.773,40.832 44.419,40.832 44.419,38.363
	43.688,38.363 43.688,38.055 "/>
<polygon fill="#005498" points="46.202,40.832 45.872,40.832 45.872,38.055 46.445,38.055 47.145,40.386 47.152,40.386
	47.86,38.055 48.444,38.055 48.444,40.832 48.09,40.832 48.09,38.363 48.083,38.363 47.307,40.832 46.973,40.832 46.21,38.363
	46.202,38.363 "/>
<path fill="#00A6DB" d="M115.564,48.783c-0.066-0.202-0.155-0.279-0.319-0.279c-0.145,0-0.248,0.092-0.248,0.228
	c0,0.062,0.027,0.117,0.073,0.158c0.055,0.048,0.104,0.071,0.288,0.141c0.186,0.073,0.263,0.112,0.346,0.184
	c0.103,0.087,0.161,0.222,0.161,0.368c0,0.322-0.249,0.549-0.607,0.549c-0.34,0-0.546-0.17-0.626-0.506l0.268-0.075
	c0.05,0.226,0.166,0.334,0.369,0.334c0.174,0,0.292-0.104,0.292-0.261c0-0.035-0.008-0.065-0.023-0.099
	c-0.035-0.079-0.104-0.129-0.283-0.199c-0.266-0.096-0.289-0.109-0.384-0.192c-0.102-0.085-0.161-0.222-0.161-0.367
	c0-0.303,0.224-0.511,0.553-0.511c0.163,0,0.292,0.05,0.394,0.143c0.083,0.077,0.115,0.139,0.165,0.297L115.564,48.783z"/>
<polygon fill="#00A6DB" points="116.667,48.289 117.026,49.592 117.397,48.289 117.822,48.289 117.822,50.098 117.543,50.098
	117.543,48.554 117.112,50.098 116.894,50.098 116.475,48.554 116.475,50.098 116.226,50.098 116.226,48.289 "/>
<polygon fill="#00A6DB" points="2.064,48.26 3.442,52.976 4.82,48.26 5.821,48.26 5.821,54.116 5.154,54.116 5.154,49.042
	3.644,54.116 3.135,54.116 1.652,49.034 1.652,54.116 1.037,54.116 1.037,48.26 "/>
<path fill="#00A6DB" d="M7.305,49.789l0.887,3.238l0.957-3.238h0.614l-1.492,4.765c-0.132,0.431-0.21,0.606-0.368,0.799
	c-0.177,0.229-0.422,0.325-0.765,0.325c-0.148,0-0.228-0.008-0.42-0.045v-0.526c0.14,0.026,0.201,0.034,0.298,0.034
	c0.141,0,0.264-0.025,0.342-0.06c0.089-0.053,0.167-0.141,0.22-0.265c0.115-0.218,0.148-0.307,0.307-0.894l-1.219-4.134H7.305z"/>
<polygon fill="#00A6DB" points="12.997,48.26 12.997,53.527 15.217,53.527 15.217,54.116 12.286,54.116 12.286,48.26 "/>
<path fill="#00A6DB" d="M15.71,48.27h0.702v0.755H15.71V48.27z M16.386,54.116h-0.641v-4.327h0.641V54.116z"/>
<path fill="#00A6DB" d="M19.143,49.789v0.526h-0.791v3.801h-0.64v-3.801H17.08v-0.526h0.632v-0.237
	c0.017-0.597,0.088-0.879,0.307-1.124c0.176-0.192,0.431-0.281,0.844-0.281c0.21,0,0.289,0.01,0.491,0.054v0.525
	c-0.132-0.035-0.186-0.043-0.342-0.043c-0.256,0-0.431,0.069-0.527,0.201c-0.106,0.15-0.133,0.334-0.133,0.905H19.143z"/>
<path fill="#00A6DB" d="M20.195,52.035v0.027c0,1.087,0.334,1.633,1.001,1.633c0.456,0,0.693-0.229,0.887-0.861l0.598,0.142
	c-0.221,0.841-0.72,1.264-1.511,1.264c-1.053,0-1.658-0.809-1.658-2.222c0-1.447,0.649-2.353,1.685-2.353
	c0.544,0,1.002,0.272,1.238,0.728c0.246,0.492,0.289,0.713,0.315,1.643H20.195z M21.127,50.21c-0.519,0-0.825,0.439-0.904,1.289
	h1.799C22.021,50.675,21.696,50.21,21.127,50.21"/>
<rect x="23.752" y="53.168" fill="#00A6DB" width="0.799" height="0.948"/>
<polygon fill="#00A6DB" points="29.106,48.26 30.485,52.976 31.862,48.26 32.863,48.26 32.863,54.116 32.196,54.116 32.196,49.042
	30.687,54.116 30.178,54.116 28.694,49.034 28.694,54.116 28.079,54.116 28.079,48.26 "/>
<path fill="#00A6DB" d="M34.348,49.789l0.887,3.238l0.956-3.238h0.614l-1.491,4.765c-0.132,0.431-0.211,0.606-0.369,0.799
	c-0.176,0.229-0.421,0.325-0.764,0.325c-0.149,0-0.229-0.008-0.421-0.045v-0.526c0.141,0.026,0.201,0.034,0.298,0.034
	c0.141,0,0.265-0.025,0.343-0.06c0.088-0.053,0.167-0.141,0.219-0.265c0.115-0.218,0.149-0.307,0.307-0.894l-1.219-4.134H34.348z"/>
<path fill="#00A6DB" d="M42.059,49.789c-0.131-0.379-0.167-0.458-0.316-0.66c-0.184-0.253-0.481-0.384-0.86-0.384
	c-0.579,0-0.974,0.366-0.974,0.902c0,0.221,0.079,0.431,0.22,0.571c0.184,0.184,0.351,0.271,1.07,0.545
	c0.623,0.245,0.921,0.403,1.186,0.639c0.298,0.265,0.482,0.694,0.482,1.125c0,1-0.772,1.71-1.87,1.71c-0.561,0-1.105-0.19-1.447-0.5
	c-0.325-0.297-0.449-0.534-0.571-1.165l0.649-0.178c0.106,0.457,0.185,0.623,0.386,0.851c0.229,0.247,0.59,0.396,1.002,0.396
	c0.667,0,1.114-0.403,1.114-1.009c0-0.139-0.035-0.272-0.088-0.396c-0.141-0.314-0.403-0.498-1.062-0.755
	c-0.887-0.342-0.956-0.376-1.255-0.631c-0.308-0.272-0.509-0.729-0.509-1.168c0-0.896,0.719-1.536,1.729-1.536
	c0.518,0,0.921,0.158,1.245,0.492c0.246,0.263,0.343,0.447,0.501,0.965L42.059,49.789z"/>
<path fill="#00A6DB" d="M44.429,49.789v0.656c0.265-0.577,0.526-0.78,1.054-0.78c0.597,0,0.904,0.265,1.044,0.878
	c0.237-0.605,0.589-0.878,1.142-0.878c0.307,0,0.588,0.106,0.789,0.29c0.281,0.257,0.353,0.554,0.353,1.493v2.668h-0.642v-2.635
	c0-0.421-0.009-0.544-0.043-0.735c-0.062-0.354-0.281-0.534-0.615-0.534c-0.561,0-0.868,0.48-0.868,1.349v2.556h-0.641v-2.556
	l-0.01-0.307c0-0.475-0.017-0.552-0.104-0.745c-0.098-0.186-0.299-0.297-0.562-0.297c-0.271,0-0.482,0.104-0.631,0.322
	c-0.07,0.105-0.124,0.22-0.158,0.343c-0.062,0.211-0.062,0.272-0.062,0.728v2.512h-0.641v-4.327H44.429z"/>
<path fill="#00A6DB" d="M49.979,48.27h0.702v0.755h-0.702V48.27z M50.654,54.116h-0.642v-4.327h0.642V54.116z"/>
<rect x="51.856" y="48.26" fill="#00A6DB" width="0.641" height="5.856"/>
<path fill="#00A6DB" d="M54.156,52.035v0.027c0,1.087,0.333,1.633,1.001,1.633c0.457,0,0.692-0.229,0.886-0.861l0.598,0.142
	c-0.22,0.841-0.72,1.264-1.51,1.264c-1.054,0-1.659-0.809-1.659-2.222c0-1.447,0.649-2.353,1.686-2.353c0.544,0,1,0.272,1.237,0.728
	c0.246,0.492,0.29,0.713,0.315,1.643H54.156z M55.087,50.21c-0.518,0-0.825,0.439-0.904,1.289h1.8
	C55.982,50.675,55.657,50.21,55.087,50.21"/>
<rect x="57.712" y="53.168" fill="#00A6DB" width="0.799" height="0.948"/>
<polygon fill="#00A6DB" points="63.066,48.26 64.444,52.976 65.823,48.26 66.823,48.26 66.823,54.116 66.156,54.116 66.156,49.042
	64.646,54.116 64.138,54.116 62.654,49.034 62.654,54.116 62.04,54.116 62.04,48.26 "/>
<path fill="#00A6DB" d="M68.309,49.789l0.887,3.238l0.956-3.238h0.614l-1.492,4.765c-0.131,0.431-0.212,0.606-0.37,0.799
	c-0.174,0.229-0.42,0.325-0.763,0.325c-0.148,0-0.228-0.008-0.421-0.045v-0.526c0.14,0.026,0.202,0.034,0.299,0.034
	c0.141,0,0.263-0.025,0.342-0.06c0.088-0.053,0.166-0.141,0.22-0.265c0.113-0.218,0.149-0.307,0.308-0.894l-1.221-4.134H68.309z"/>
<path fill="#00A6DB" d="M77.221,51.192c0,1.976-0.719,3.045-2.062,3.045c-1.361,0-2.099-1.079-2.099-3.045
	c0-1.975,0.737-3.046,2.099-3.046C76.502,48.146,77.221,49.218,77.221,51.192 M73.798,51.192c0,1.642,0.448,2.458,1.361,2.458
	c0.877,0,1.324-0.833,1.324-2.458c0-1.633-0.447-2.457-1.342-2.457C74.246,48.735,73.798,49.56,73.798,51.192"/>
<path fill="#00A6DB" d="M78.812,49.789v0.903c0.157-0.403,0.254-0.562,0.473-0.763c0.203-0.168,0.413-0.265,0.623-0.265
	c0.044,0,0.071,0,0.149,0.01v0.728c-0.087-0.018-0.122-0.018-0.166-0.018c-0.642,0-1.01,0.553-1.01,1.492v2.239H78.24v-4.327H78.812
	z"/>
<path fill="#00A6DB" d="M81.242,48.718v1.071h0.853v0.526h-0.853v2.178c0,0.594,0.019,0.752,0.089,0.91
	c0.078,0.176,0.271,0.274,0.579,0.274c0.131,0,0.2-0.01,0.386-0.044v0.534c-0.272,0.052-0.386,0.069-0.588,0.069
	c-0.369,0-0.65-0.095-0.816-0.271c-0.237-0.229-0.289-0.511-0.289-1.474v-2.178h-0.623v-0.526h0.623v-1.01L81.242,48.718z"/>
<path fill="#00A6DB" d="M83.464,48.26v2.195c0.2-0.535,0.544-0.79,1.08-0.79c0.35,0,0.666,0.124,0.859,0.342
	c0.114,0.124,0.193,0.282,0.228,0.438c0.062,0.239,0.07,0.423,0.07,0.984v2.687h-0.641V51.43c0-0.377-0.009-0.527-0.043-0.701
	c-0.062-0.326-0.308-0.519-0.65-0.519c-0.588,0-0.903,0.578-0.903,1.649v2.257h-0.641V48.26H83.464z"/>
<path fill="#00A6DB" d="M90.012,52.001c0,1.43-0.596,2.236-1.667,2.236c-1.062,0-1.651-0.816-1.651-2.281
	c0-1.475,0.589-2.291,1.661-2.291C89.44,49.665,90.012,50.474,90.012,52.001 M87.397,51.948c0,1.148,0.332,1.747,0.957,1.747
	c0.622,0,0.947-0.599,0.947-1.739c0-1.15-0.325-1.746-0.947-1.746C87.729,50.21,87.397,50.806,87.397,51.948"/>
<path fill="#00A6DB" d="M94.032,48.26v5.856h-0.579V53.51c-0.263,0.482-0.623,0.693-1.158,0.693c-0.965,0-1.519-0.798-1.519-2.202
	c0-1.423,0.588-2.301,1.536-2.301c0.264,0,0.501,0.062,0.693,0.194c0.177,0.112,0.255,0.211,0.387,0.481V48.26H94.032z
	 M93.393,51.298c-0.01-0.148-0.044-0.299-0.115-0.455c-0.174-0.397-0.474-0.606-0.851-0.606c-0.623,0-0.94,0.569-0.94,1.686
	c0,1.175,0.317,1.746,0.975,1.746c0.212,0,0.396-0.062,0.555-0.192c0.297-0.238,0.377-0.51,0.377-1.213v-0.718V51.298z"/>
<path fill="#00A6DB" d="M98.343,52.001c0,1.43-0.597,2.236-1.668,2.236c-1.061,0-1.65-0.816-1.65-2.281
	c0-1.475,0.59-2.291,1.66-2.291C97.772,49.665,98.343,50.474,98.343,52.001 M95.727,51.948c0,1.148,0.335,1.747,0.958,1.747
	s0.948-0.599,0.948-1.739c0-1.15-0.325-1.746-0.948-1.746S95.727,50.806,95.727,51.948"/>
<path fill="#00A6DB" d="M99.933,49.789v0.675c0.245-0.571,0.57-0.799,1.115-0.799c0.377,0,0.71,0.142,0.903,0.379
	c0.105,0.121,0.185,0.279,0.211,0.455c0.045,0.203,0.053,0.378,0.053,0.86v2.757h-0.641v-2.668c0-0.475,0-0.554-0.044-0.746
	c-0.061-0.334-0.271-0.49-0.632-0.49c-0.254,0-0.448,0.085-0.606,0.26c-0.237,0.292-0.316,0.624-0.316,1.309v2.336h-0.64v-4.327
	H99.933z"/>
<path fill="#00A6DB" d="M104.138,48.718v1.071h0.852v0.526h-0.852v2.178c0,0.594,0.018,0.752,0.088,0.91
	c0.079,0.176,0.272,0.274,0.579,0.274c0.132,0,0.203-0.01,0.387-0.044v0.534c-0.272,0.052-0.387,0.069-0.589,0.069
	c-0.369,0-0.65-0.095-0.815-0.271c-0.237-0.229-0.29-0.511-0.29-1.474v-2.178h-0.623v-0.526h0.623v-1.01L104.138,48.718z"/>
<path fill="#00A6DB" d="M105.683,48.27h0.704v0.755h-0.704V48.27z M106.359,54.116h-0.642v-4.327h0.642V54.116z"/>
<path fill="#00A6DB" d="M109.51,50.912c-0.167-0.482-0.43-0.7-0.843-0.7c-0.438,0-0.745,0.27-0.745,0.656
	c0,0.299,0.185,0.499,0.562,0.613l0.447,0.133c0.422,0.132,0.658,0.235,0.878,0.395c0.281,0.192,0.447,0.526,0.447,0.896
	c0,0.781-0.649,1.333-1.571,1.333c-0.878,0-1.378-0.401-1.554-1.237l0.597-0.131c0.114,0.562,0.432,0.826,1.002,0.826
	c0.509,0,0.868-0.29,0.868-0.712c0-0.186-0.088-0.359-0.245-0.476c-0.123-0.094-0.272-0.156-0.606-0.262
	c-0.684-0.211-0.877-0.29-1.088-0.476c-0.22-0.183-0.368-0.499-0.368-0.807c0-0.729,0.614-1.299,1.412-1.299
	c0.422,0,0.791,0.158,1.044,0.431c0.158,0.184,0.221,0.314,0.324,0.676L109.51,50.912z"/>
<path fill="#00A6DB" d="M111.768,48.718v1.071h0.851v0.526h-0.851v2.178c0,0.594,0.016,0.752,0.087,0.91
	c0.079,0.176,0.272,0.274,0.578,0.274c0.133,0,0.203-0.01,0.387-0.044v0.534c-0.271,0.052-0.387,0.069-0.588,0.069
	c-0.369,0-0.649-0.095-0.815-0.271c-0.237-0.229-0.291-0.511-0.291-1.474v-2.178h-0.622v-0.526h0.622v-1.01L111.768,48.718z"/>
<rect x="113.416" y="53.168" fill="#00A6DB" width="0.801" height="0.948"/>
</svg>
