<?xml version="1.0" encoding="utf-8"?>
<!-- Generator: Adobe Illustrator 19.1.0, SVG Export Plug-In . SVG Version: 6.00 Build 0)  -->
<!DOCTYPE svg PUBLIC "-//W3C//DTD SVG 1.1//EN" "http://www.w3.org/Graphics/SVG/1.1/DTD/svg11.dtd">
<svg version="1.1" id="Layer_1" xmlns="http://www.w3.org/2000/svg" xmlns:xlink="http://www.w3.org/1999/xlink" x="0px" y="0px"
	 width="100px" height="100px" viewBox="0 0 100 100" enable-background="new 0 0 100 100" xml:space="preserve">
<g>
	<rect fill="#FF00FF" width="100" height="100"/>
	<g>
		<path fill="#FFFFFF" d="M41.8,60.2l5.5-0.9V44.2l-5.8,0.7l-0.8-3.4c0.4-0.1,1-0.3,1.7-0.6c0.7-0.2,1.4-0.5,2.1-0.8
			c0.7-0.3,1.5-0.6,2.2-1c0.8-0.3,1.5-0.7,2.1-1s1.2-0.6,1.7-0.8c0.5-0.3,0.8-0.4,1-0.6l3,0.4l-0.1,22.3l5,0.8v3.1H41.8V60.2z"/>
	</g>
	<g>
		<path fill="#FFFFFF" d="M7.1,13h1.2l0.5,0.8C8.9,13.9,8.9,14,9,14s0.2,0.2,0.3,0.3c0.1,0.1,0.2,0.2,0.4,0.2s0.3,0.1,0.5,0.1
			c0.4,0,0.8,0,1-0.2c0.2-0.2,0.3-0.4,0.3-0.7c0-0.1-0.1-0.3-0.2-0.4c-0.1-0.1-0.2-0.2-0.4-0.4s-0.4-0.2-0.6-0.3
			c-0.2-0.1-0.5-0.2-0.7-0.3c-0.3-0.2-0.7-0.3-1-0.5c-0.3-0.2-0.6-0.4-0.8-0.6s-0.4-0.5-0.6-0.8S7,9.7,7,9.4c0-0.3,0.1-0.6,0.2-0.8
			C7.3,8.3,7.4,8.1,7.6,8C7.8,7.8,8,7.7,8.2,7.5S8.7,7.3,9,7.2c0.3-0.1,0.5-0.1,0.8-0.2S10.3,7,10.5,7c0.3,0,0.6,0,0.8,0
			c0.3,0,0.6,0.1,0.8,0.1c0.3,0,0.5,0.1,0.7,0.1c0.2,0.1,0.4,0.1,0.6,0.2v2h-1.3l-0.4-0.9c-0.1-0.2-0.3-0.3-0.5-0.4
			c-0.2-0.1-0.4-0.2-0.6-0.2c-0.1,0-0.3,0-0.4,0C10.1,8,10,8,9.9,8.1S9.7,8.2,9.7,8.3C9.6,8.4,9.6,8.5,9.6,8.6c0,0.2,0,0.3,0.1,0.4
			c0.1,0.1,0.2,0.3,0.3,0.4s0.3,0.2,0.4,0.3c0.2,0.1,0.3,0.2,0.5,0.3c0.2,0.1,0.5,0.2,0.7,0.3c0.2,0.1,0.5,0.2,0.7,0.3
			s0.4,0.3,0.6,0.4c0.2,0.1,0.4,0.3,0.5,0.5c0.2,0.2,0.3,0.4,0.4,0.6S14,12.7,14,13c0,0.5-0.1,0.9-0.3,1.2c-0.2,0.3-0.5,0.6-0.8,0.8
			c-0.4,0.2-0.8,0.4-1.2,0.5s-1,0.1-1.5,0.1c-0.2,0-0.5,0-0.7,0c-0.3,0-0.5-0.1-0.8-0.1S8,15.3,7.8,15.2s-0.5-0.2-0.7-0.3V13z"/>
		<path fill="#FFFFFF" d="M14.2,11.4c0-0.6,0.1-1.2,0.4-1.7c0.2-0.5,0.6-1,1-1.4c0.4-0.4,0.9-0.7,1.5-0.9c0.6-0.2,1.2-0.3,2-0.3
			c0.1,0,0.3,0,0.5,0c0.2,0,0.4,0,0.5,0.1c0.2,0,0.4,0.1,0.5,0.1s0.3,0.1,0.5,0.2l1-0.5l0.4,0.2V18l1,0.2v1h-5v-1l1.4-0.2v-2.3
			l0.1-0.9c-0.1,0.1-0.2,0.1-0.3,0.2s-0.2,0.2-0.4,0.2c-0.2,0.1-0.4,0.1-0.6,0.2c-0.2,0.1-0.5,0.1-0.8,0.1c-0.3,0-0.5,0-0.8-0.1
			s-0.6-0.1-0.8-0.2c-0.3-0.1-0.5-0.3-0.8-0.5c-0.3-0.2-0.5-0.5-0.7-0.8c-0.2-0.3-0.3-0.7-0.5-1.1S14.2,12,14.2,11.4z M18.8,14.1
			c0.2,0,0.4,0,0.6-0.1c0.2-0.1,0.3-0.1,0.5-0.2V8.5c0-0.1-0.1-0.1-0.1-0.2c-0.1-0.1-0.1-0.1-0.2-0.1c-0.1,0-0.2-0.1-0.3-0.1
			c-0.1,0-0.2,0-0.3,0c-0.4,0-0.7,0.1-1,0.2s-0.5,0.3-0.6,0.6s-0.3,0.6-0.3,0.9C17,10.2,17,10.6,16.9,11c0,0.5,0,0.9,0.1,1.3
			c0.1,0.4,0.2,0.7,0.3,1c0.2,0.3,0.3,0.5,0.6,0.6C18.2,14.1,18.5,14.1,18.8,14.1z"/>
		<path fill="#FFFFFF" d="M23.8,9.1l-0.7-0.5V7.7L25.9,7l0.4,0.1v5.1c0,0.3,0,0.6,0,0.9c0,0.2,0.1,0.5,0.2,0.6s0.2,0.3,0.3,0.4
			c0.1,0.1,0.3,0.1,0.6,0.1c0.1,0,0.2,0,0.4,0c0.1,0,0.3,0,0.4-0.1s0.2-0.1,0.3-0.1s0.2-0.1,0.2-0.2V9.2l-0.9-0.5v-1L30.9,7l0.4,0.1
			v7.3h0.8v0.8c-0.1,0.1-0.2,0.1-0.3,0.2c-0.1,0.1-0.3,0.1-0.5,0.1c-0.2,0-0.4,0.1-0.6,0.1c-0.2,0-0.4,0-0.6,0c-0.1,0-0.3,0-0.4,0
			c-0.1,0-0.2-0.1-0.3-0.1c-0.1-0.1-0.2-0.1-0.2-0.2C29,15.1,29,15,29,14.8v-0.3c-0.1,0.2-0.3,0.3-0.5,0.5c-0.2,0.1-0.4,0.2-0.6,0.3
			c-0.2,0.1-0.4,0.2-0.7,0.2c-0.2,0-0.4,0.1-0.6,0.1c-0.5,0-0.9-0.1-1.3-0.2c-0.4-0.1-0.6-0.3-0.9-0.6c-0.2-0.2-0.4-0.6-0.5-1
			c-0.1-0.4-0.1-0.8-0.1-1.4V9.1z"/>
		<path fill="#FFFFFF" d="M32.4,12.5c0.1-0.3,0.2-0.5,0.4-0.8c0.2-0.2,0.4-0.4,0.7-0.6c0.3-0.2,0.6-0.3,0.9-0.4s0.7-0.2,1-0.3
			s0.7-0.1,1-0.2c0.3,0,0.6,0,0.8,0c0-0.4,0-0.7-0.1-1s-0.2-0.4-0.3-0.6c-0.1-0.1-0.3-0.2-0.5-0.3c-0.2-0.1-0.4-0.1-0.7-0.1
			c-0.3,0-0.6,0-0.9,0.1c-0.3,0.1-0.5,0.1-0.7,0.2c-0.2,0.1-0.4,0.1-0.5,0.2C33.3,8.9,33.2,9,33.2,9l-0.5-1.1
			c0.1-0.1,0.2-0.1,0.4-0.2c0.2-0.1,0.5-0.2,0.8-0.3c0.3-0.1,0.7-0.2,1.1-0.2C35.4,7,35.9,7,36.4,7c0.5,0,0.9,0,1.4,0.1
			c0.4,0.1,0.8,0.2,1.1,0.5c0.3,0.2,0.5,0.5,0.7,0.9c0.2,0.4,0.2,0.9,0.2,1.5v4.4h1v0.8c-0.1,0.1-0.3,0.2-0.4,0.2
			c-0.2,0.1-0.3,0.1-0.5,0.1s-0.3,0-0.5,0.1c-0.2,0-0.3,0-0.5,0c-0.1,0-0.2,0-0.4,0s-0.3-0.1-0.4-0.1c-0.1-0.1-0.3-0.1-0.4-0.3
			c-0.1-0.1-0.2-0.3-0.2-0.4c-0.3,0.2-0.6,0.4-0.9,0.6c-0.3,0.2-0.8,0.2-1.2,0.2c-0.6,0-1.2-0.1-1.6-0.3c-0.4-0.2-0.8-0.4-1-0.7
			c-0.2-0.3-0.4-0.6-0.5-1C32.3,13.3,32.3,12.9,32.4,12.5z M34.9,13c0,0.5,0.1,0.8,0.4,1s0.7,0.3,1.2,0.2c0.1,0,0.3-0.1,0.4-0.1
			c0.1-0.1,0.2-0.1,0.3-0.2c0-0.4,0-0.8,0-1.3c0-0.4,0-0.8,0-1.3c-0.2,0-0.3,0-0.5,0s-0.3,0-0.5,0.1c-0.2,0-0.3,0.1-0.5,0.2
			s-0.3,0.2-0.4,0.3c-0.1,0.1-0.2,0.3-0.3,0.4S34.9,12.8,34.9,13z"/>
		<path fill="#FFFFFF" d="M40.9,14.4l0.9-0.2V9.4l-1-0.7V7.8L43.5,7l0.5,0.1v1.4c0.1-0.2,0.2-0.5,0.4-0.7c0.2-0.2,0.4-0.4,0.6-0.5
			c0.2-0.1,0.4-0.2,0.6-0.3C45.8,7,46,7,46.2,7c0.2,0,0.3,0,0.5,0s0.3,0,0.3,0.1v2.3c-0.1-0.1-0.1-0.1-0.2-0.2s-0.2-0.1-0.3-0.1
			c-0.1,0-0.2-0.1-0.4-0.1c-0.1,0-0.2,0-0.3,0c-0.2,0-0.4,0-0.5,0s-0.3,0.1-0.4,0.1c-0.1,0-0.2,0.1-0.2,0.1c-0.1,0-0.1,0.1-0.1,0.1
			v4.9l1.7,0.2v1h-5.2V14.4z"/>
		<path fill="#FFFFFF" d="M47,11.5c0-0.6,0.1-1.2,0.3-1.8s0.5-1,0.9-1.4c0.4-0.4,0.9-0.7,1.4-1S50.8,7,51.5,7c0.6,0,1.1,0.1,1.5,0.2
			c0.4,0.2,0.8,0.4,1,0.6c0.3,0.3,0.5,0.6,0.6,1s0.2,0.8,0.2,1.2c0,0.3,0,0.6,0,0.8s-0.1,0.5-0.1,0.7h-5.1c0.1,0.9,0.3,1.5,0.7,2
			c0.4,0.4,0.9,0.7,1.7,0.7c0.4,0,0.7,0,1.1-0.1c0.4-0.1,0.8-0.2,1.2-0.4l0.4,0.9c-0.2,0.2-0.4,0.3-0.7,0.4
			c-0.3,0.1-0.6,0.2-0.9,0.3s-0.6,0.2-1,0.2c-0.3,0.1-0.7,0.1-1.1,0.1c-0.7,0-1.3-0.1-1.8-0.3c-0.5-0.2-1-0.5-1.3-0.8
			c-0.4-0.3-0.6-0.8-0.8-1.3C47.1,12.8,47,12.2,47,11.5z M52.4,10.4c0-0.2,0-0.4,0-0.6c0-0.2,0-0.4,0-0.6c0-0.2-0.1-0.4-0.1-0.6
			c-0.1-0.2-0.2-0.3-0.3-0.4c-0.1-0.1-0.2-0.1-0.3-0.1c-0.1,0-0.3,0-0.4,0c-0.3,0-0.5,0.1-0.7,0.2c-0.2,0.1-0.3,0.3-0.5,0.5
			C50,9,49.9,9.3,49.8,9.5c-0.1,0.3-0.1,0.6-0.1,0.8H52.4z"/>
	</g>
</g>
</svg>
