<?xml version="1.0" encoding="utf-8"?>
<!-- Generator: Adobe Illustrator 14.0.0, SVG Export Plug-In . SVG Version: 6.00 Build 43363)  -->
<!DOCTYPE svg PUBLIC "-//W3C//DTD SVG 1.1//EN" "http://www.w3.org/Graphics/SVG/1.1/DTD/svg11.dtd">
<svg version="1.1" id="Layer_1" xmlns="http://www.w3.org/2000/svg" xmlns:xlink="http://www.w3.org/1999/xlink" x="0px" y="0px"
	 width="355px" height="325px" viewBox="0 0 355 325" enable-background="new 0 0 355 325" xml:space="preserve">
<path fill="#CCCCCC" d="M116.635,296.54v6.47l-0.563-0.009v-9.177l0.009-3.921c7.09-0.92,14.318-0.401,21.219,1.576
	c0.117-0.085,0.265-0.147,0.422-0.209c9.1-3.998,20.04-5.165,29.75-3.669c5.755-3.745,12.844-5.174,19.68-3.678
	c4.322,0.925,2.74,7.451-1.576,6.519c-7.242-1.55-14.889,1.299-19.468,7.222c-2.748,3.574-7.986-0.409-5.246-3.983
	c-4.711-0.161-9.61,0.315-14.216,1.512c3.167,1.628,6.217,3.625,9.066,5.997c2.535,2.077,0.766,5.489-1.72,5.947l-0.318,0.028
	c-0.554,0.037-1.154-0.066-1.725-0.391l-0.295-0.077c-0.101-0.181-0.183-0.238-0.281-0.314c-0.309-0.267-0.624-0.524-0.94-0.753
	v0.819l-0.547-0.114v-1.152c-0.404-0.296-0.815-0.591-1.224-0.877v1.781l-0.555-0.113v-2.059c-0.399-0.276-0.823-0.533-1.223-0.801
	v2.641l-0.559-0.101v-2.902c-0.399-0.228-0.799-0.476-1.224-0.705v3.393l-0.548-0.095v-3.621c-0.401-0.219-0.819-0.438-1.23-0.639
	v4.069l-0.552-0.087v-4.269c-0.411-0.199-0.815-0.391-1.23-0.571v4.659l-0.552-0.067v-4.849c-0.399-0.182-0.815-0.354-1.224-0.524
	v5.193l-0.562-0.081v-5.321c-0.396-0.162-0.806-0.316-1.215-0.448v5.631l-0.563-0.071v-5.769c-0.399-0.139-0.82-0.286-1.219-0.411
	v6.023l-0.547-0.059v-6.145c-0.402-0.116-0.824-0.229-1.235-0.334v6.346l-0.547-0.047v-6.438c-0.406-0.104-0.806-0.199-1.209-0.291
	v6.613l-0.549-0.067v-6.669c-0.409-0.081-0.82-0.152-1.242-0.229v6.803l-0.54-0.047v-6.861c-0.409-0.066-0.811-0.134-1.237-0.19
	v6.946l-0.545-0.019v-7.004c-0.409-0.038-0.809-0.091-1.229-0.144v7.062l-0.552-0.048v-7.052c-0.402-0.038-0.815-0.076-1.221-0.1
	v7.075L125,303.267v-7.089c-0.401-0.02-0.819-0.029-1.23-0.038v7.042l-0.542,0.009v-7.046c-0.42,0-0.838,0-1.237,0v6.999l-0.55-0.02
	v-6.971c-0.399,0.011-0.819,0.029-1.223,0.062v6.865l-0.559-0.019v-6.818c-0.414,0.029-0.815,0.062-1.224,0.101v6.699l-0.555-0.021
	v-6.617C117.45,296.454,117.043,296.492,116.635,296.54z M182.26,311.129v1.915l-0.554,0.105v-0.973l-0.199,0.429
	c-1.764,4.136-7.89,1.64-6.131-2.478c5.007-11.701,19.08-14.132,27.781-7.756c0.143-0.086,0.295-0.124,0.466-0.172
	c11.291-3.431,23.288,2.077,27.737,12.845c1.688,4.088-4.498,6.766-6.183,2.697c-0.524-1.278-1.19-2.449-1.992-3.507v0.266
	l-0.552-0.209v-0.743c-0.379-0.457-0.801-0.876-1.23-1.295v1.639l-0.552-0.163v-1.962c-0.381-0.334-0.801-0.667-1.222-0.963v2.63
	l-0.551-0.115v-2.887c-0.391-0.257-0.801-0.494-1.23-0.709v3.396l-0.543-0.057v-3.611c-0.398-0.201-0.811-0.372-1.219-0.516v4.012
	l-0.563-0.019v-4.203c-0.409-0.132-0.811-0.266-1.219-0.372v4.556l-0.548,0.02v-4.698c-0.42-0.085-0.824-0.17-1.225-0.219v5.003
	l-0.562,0.048v-5.118c-0.401-0.047-0.819-0.076-1.23-0.095v5.384l-0.57,0.105v-5.489c-0.411,0-0.811,0.019-1.221,0.057v2.107
	c0.183,0.447,0.334,0.923,0.486,1.419c1.124,3.773-3.832,5.831-5.812,3.211v0.981l-0.552,0.31v-2.368
	c-0.316-1.081-0.729-1.972-1.23-2.782v5.898l-0.552,0.362v-7.08c-0.372-0.495-0.778-0.962-1.222-1.362v9.347l-0.565,0.439v-10.272
	c-0.385-0.305-0.796-0.61-1.226-0.866v10.805c-0.18-0.182-0.372-0.352-0.547-0.523v-10.597c-0.404-0.2-0.807-0.391-1.235-0.553
	v10.101c-0.171-0.133-0.36-0.285-0.552-0.409v-9.891c-0.391-0.128-0.811-0.229-1.209-0.32v9.42l-0.563-0.305v-9.21
	c-0.377-0.071-0.758-0.101-1.144-0.119l-0.085,8.709l-0.554-0.252v-8.485c-0.404-0.01-0.809,0.009-1.21,0.047v7.985l-0.57-0.17
	v-7.768c-0.415,0.058-0.824,0.143-1.226,0.238v7.218l-0.557-0.108v-6.957c-0.425,0.105-0.801,0.258-1.201,0.41v6.371l-0.562-0.054
	v-6.046c-0.42,0.201-0.829,0.434-1.229,0.682v5.298h-0.291h-0.258v-4.907c-0.423,0.305-0.844,0.648-1.229,1.038v3.936l-0.554,0.058
	v-3.401C183.045,309.956,182.627,310.528,182.26,311.129z M208.388,308.727v-0.762l-0.372,0.048
	C208.15,308.241,208.272,308.47,208.388,308.727z M186.29,168.691v3.135l-0.562-0.048v-2.916L186.29,168.691z M188.061,168.272
	v3.812l-0.551-0.091v-3.606L188.061,168.272z M189.843,167.995v4.508l-0.561-0.143v-4.298L189.843,167.995z M195.181,167.901v6.879
	l-0.555-0.324v-6.584L195.181,167.901z M196.963,168.139v7.809l-0.554-0.39v-7.495L196.963,168.139z M198.745,168.511v8.881
	l-0.563-0.477v-8.553L198.745,168.511z M200.521,169.025v10.157c-0.167-0.199-0.355-0.41-0.547-0.609v-9.729L200.521,169.025z
	 M180.943,170.902v1l-0.552,0.086v-0.762L180.943,170.902z M191.626,167.834v5.251l-0.543-0.201v-5.012L191.626,167.834z
	 M192.84,173.57v-5.774l0.568,0.009v6.018L192.84,173.57z M182.726,170.007v1.729l-0.562,0.037v-1.51L182.726,170.007z
	 M183.907,171.703l0.096-2.25l0.51-0.18v2.43h-0.501H183.907z M184.812,85.457c-0.366,0.353-0.819,0.62-1.311,0.771l-0.001-58.897
	c0-0.329-0.488-0.329-0.488,0v59.017c-0.439,0.067-0.887,0.067-1.307,0l-0.001-76.121l3.099,1.392v73.839H184.812z M180.487,85.866
	c-0.372-0.247-0.705-0.576-0.934-1.001V9.269l0.933,0.419L180.487,85.866z M183.106,199.746v1.315
	c0.396-0.2,0.811-0.372,1.227-0.544v-2.343c0.18-0.191,0.364-0.372,0.557-0.573v2.735c0.398-0.134,0.811-0.248,1.239-0.344v-3.43
	c0.171-0.124,0.351-0.268,0.533-0.41v3.726c0.409-0.065,0.819-0.104,1.228-0.146v-4.312l0.563-0.286v4.555
	c0.409,0,0.811,0,1.22,0.029v-5.099l0.552-0.2v5.341c0.41,0.049,0.814,0.104,1.221,0.196v-5.875l0.557-0.109v6.137
	c0.406,0.109,0.819,0.233,1.226,0.391v-6.719l0.552-0.062v7.019c0.399,0.172,0.792,0.382,1.173,0.591l0.047-7.641h0.544v7.251
	c0.438-0.22,0.829-0.42,1.237-0.601v-6.57l0.545,0.062v6.27c0.404-0.181,0.828-0.323,1.224-0.466V194l0.556,0.114v5.327
	c0.406-0.134,0.82-0.229,1.231-0.333v-4.68l0.561,0.172v4.393c0.393-0.066,0.801-0.133,1.212-0.181v-3.803l0.543,0.22v3.535
	c0.408-0.043,0.819-0.076,1.237-0.086v-2.906l0.191,0.1c-3.126-6.408-11.386-9.686-18.604-5.27c-3.761,2.301-8.59-3.658-0.778-7.027
	c7.663-3.287,15.343-1.51,20.603,3.049v-9.123c-0.409,0.128-0.82,0.166-1.238,0.147v6.984c-0.173-0.38-0.354-0.757-0.542-1.119
	v-5.928c-0.438-0.104-0.868-0.28-1.231-0.515v4.402c-0.18-0.262-0.357-0.514-0.551-0.771v-4.107
	c-0.688-0.725-1.029-1.791-0.658-3.112c1.801-6.369-4.164-12.562-10.9-10.133c-5.089,1.82-5.994-5.36-0.717-6.708
	c3.461-0.915,6.719-0.581,9.502,0.576c0.176-0.109,0.377-0.21,0.601-0.3c2.315-0.992,4.695-1.296,6.983-1.029
	c-0.058-0.8-0.147-1.582-0.305-2.363v1.763l-0.543-0.362v-3.555c-0.334-1.01-0.752-1.99-1.244-2.929v5.788l-0.547-0.29v-6.49
	c-0.372-0.609-0.782-1.22-1.23-1.777v7.72l-0.547-0.225v-8.185c-0.391-0.444-0.797-0.901-1.219-1.292v9.048l-0.555-0.153v-9.424
	c-0.18-0.17-0.381-0.328-0.582-0.494c-0.146,0.494-0.375,0.904-0.646,1.238v8.356l-0.559-0.114v-7.714
	c-0.372,0.272-0.78,0.462-1.233,0.539v6.976l-0.537-0.067v-6.827c-0.421,0.033-0.841-0.024-1.23-0.139v6.89l-0.539-0.011v-7.088
	c-0.5-0.239-0.918-0.572-1.234-1.012v8.1l-0.557,0.029v-14.903l-0.129-0.409c-0.266-0.791-0.648-1.5-1.097-2.139v17.556
	l-0.542,0.081v-18.309c-0.373-0.43-0.79-0.801-1.229-1.125v13.898c-0.162-0.443-0.354-0.854-0.555-1.264v-13.017
	c-0.39-0.247-0.81-0.447-1.228-0.627v11.634c-0.171-0.248-0.362-0.486-0.56-0.715v-11.101c-0.39-0.125-0.789-0.258-1.219-0.315
	v10.13c-0.18-0.181-0.361-0.344-0.542-0.51v-9.696c-0.42-0.038-0.829-0.047-1.239-0.038v8.796c-0.181-0.125-0.357-0.262-0.547-0.372
	v-8.415c-0.412,0.054-0.829,0.115-1.23,0.24v7.488c-0.181-0.076-0.36-0.181-0.553-0.247v-7.09c-0.246,0.081-0.479,0.162-0.711,0.271
	c-0.166,0.071-0.337,0.128-0.508,0.177v6.185l-0.554-0.172v-5.898c-0.438,0.066-0.847,0.019-1.232-0.096v5.67l-0.555-0.086v-5.822
	c-2.137-1.134-2.666-4.783,0.372-6.098c4.039-1.726,8.458-1.601,12.189,0.085c-0.301-5.374-4.361-10.11-10.278-10.576
	c-4.42-0.345-3.73-7.014,0.694-6.652c2.713,0.22,5.181,0.991,7.318,2.191c0.062-2.271-0.928-4.901-3.296-7.67
	c-1.219-0.944-1.792-2.668-0.628-4.436c1.246-1.863,1.971-4.107,1.971-6.503c0-1.896-0.452-3.679-1.28-5.241v-9.758
	c4.797,3.149,7.955,8.581,7.955,14.817c0,2.868-0.661,5.593-1.847,8.033c3.059,4.116,4.645,8.957,3.35,13.874
	c-0.183,0.676-0.482,1.181-0.873,1.591c3.202,4.231,4.46,9.861,3.006,15.394c0.716,1.043,1.315,2.211,1.745,3.474
	c0.046,0.142,0.099,0.267,0.122,0.399c9.053,4.57,14.332,14.014,13.713,24.052c0.301,0.233,0.582,0.486,0.87,0.72V80.293h1.731
	v80.853c2.178,2.887,3.207,6.717,2.286,10.986c-0.189,0.828-0.428,1.467-0.709,1.952c3.92,5.437,5.76,12.364,4.578,19.316
	c-0.171,0.485-0.333,0.913-0.515,1.295c1.662,2.153,2.878,4.65,3.536,7.385c3.991-0.71,7.808-0.161,11.13,1.321v7.865v8.181v7.408
	c-0.716,0.104-1.432,0.253-2.154,0.452c-0.568,0.157-1.124,0.272-1.657,0.349c0.095,1.934-0.152,3.911-0.692,5.794
	c-1.224,4.315-7.637,2.639-6.418-1.663c3.898-13.698-15.599-19.872-21.314-7.886c0.572,0.157,1.143,0.348,1.715,0.609
	c4.025,1.754,1.21,7.9-2.821,6.118c-2.839-1.247-6.203,0.058-7.528,2.944c-1.891,4.078-7.932,1.411-6.041-2.669
	c1.525-3.334,4.336-5.679,7.528-6.774l0.099-0.291c2.503-7.908,9.63-12.63,16.934-13.059c-2.825-4.649-8.932-6.918-14.546-4.288
	c0,2.798-3.96,4.96-6.098,2.087c-1.84-2.478-5.383-2.944-7.896-1.058c-3.601,2.734-7.536-2.577-3.932-5.298
	c0.412-0.305,0.842-0.592,1.284-0.844v-0.742C182.726,200.317,182.906,200.032,183.106,199.746z M204.452,196.659v2.02l0.618,0.01
	C204.918,197.983,204.708,197.316,204.452,196.659z M205.862,177.268v9.843l0.219,0.21c0.342,0,0.677,0.014,1.005,0.033v-11.249
	C206.767,176.629,206.338,177.02,205.862,177.268z M209.436,175.228v12.359c0.399,0.058,0.82,0.143,1.21,0.248v-11.359
	C210.274,176.048,209.858,175.629,209.436,175.228z M208.868,187.502v-12.774c-0.338-0.3-0.69-0.59-1.053-0.872
	c-0.058,0.262-0.113,0.51-0.161,0.763v12.759C208.048,187.405,208.46,187.435,208.868,187.502z M211.197,177.134v10.825
	c0.43,0.118,0.829,0.237,1.239,0.362v-9.529C212.056,178.22,211.646,177.658,211.197,177.134z M212.979,179.688v8.843
	c0.43,0.147,0.828,0.306,1.23,0.496v-6.89C213.848,181.288,213.458,180.479,212.979,179.688z M214.762,183.633v5.65
	c0.306,0.143,0.601,0.306,0.896,0.458C215.716,187.663,215.401,185.596,214.762,183.633z M234.334,210.065v9.653
	c0.39-0.086,0.81-0.139,1.221-0.21v-8.676C235.172,210.551,234.763,210.294,234.334,210.065z M233.782,219.823v-10.062
	c-0.391-0.191-0.802-0.381-1.219-0.516v10.874C232.953,220.015,233.353,219.918,233.782,219.823z M231.999,220.261v-11.205
	c-0.398-0.133-0.81-0.242-1.219-0.334v11.922C231.161,220.509,231.561,220.376,231.999,220.261z M230.227,220.07v-11.458
	c-0.403-0.07-0.819-0.1-1.237-0.129v9.587c0.305,0.419,0.601,0.876,0.866,1.344C229.979,219.614,230.104,219.842,230.227,220.07z
	 M228.456,217.316v-8.847c-0.42-0.015-0.831,0-1.239,0.052v7.399C227.646,216.345,228.054,216.821,228.456,217.316z
	 M224.882,213.888v-2.192c-0.163,0.629-0.344,1.22-0.562,1.82C224.511,213.63,224.69,213.753,224.882,213.888z M225.406,208.95
	l0.028,5.365c0.42,0.314,0.81,0.662,1.191,1.029l0.027-6.785c-0.409,0.048-0.799,0.115-1.219,0.211L225.406,208.95z
	 M117.664,222.254v10.929c0.457-0.391,0.924-0.771,1.395-1.144v-10.263C118.592,221.92,118.121,222.081,117.664,222.254z
	 M117.664,244.283v6.347c0.476,0.029,0.933,0.096,1.395,0.152v-8.637C118.56,242.835,118.091,243.54,117.664,244.283z
	 M117.034,250.573v-5.127c-0.354,0.677-0.667,1.391-0.954,2.096v-12.863c0.316-0.314,0.631-0.619,0.954-0.924v-11.254l-0.506,0.219
	c-0.305,0.144-0.591,0.286-0.856,0.43V8.439h0.856v207.19c1.964-0.656,3.994-1.134,6.099-1.391
	c1.519-4.508,4.498-8.375,8.586-10.844c-0.363-4.498,1.572-8.419,4.593-11.111v15.123l0.171-0.076v56.059l-0.171-0.105v3.973
	c-4.562,0.102-8.458,2.54-12.037,8.044c-2.463,3.772-8.022,0.257-5.568-3.536c3.244-4.982,6.889-8.138,10.824-9.767
	c-3.68-2.802-8.096-4.555-12.946-4.793v-6.689C116.396,250.525,116.72,250.544,117.034,250.573z M119.693,221.586v9.996
	c0.466-0.319,0.933-0.639,1.41-0.949v-9.398C120.626,221.338,120.16,221.452,119.693,221.586z M119.693,241.33v9.548
	c0.476,0.081,0.942,0.162,1.41,0.257v-11.377C120.607,240.272,120.142,240.797,119.693,241.33z M121.732,221.101v9.147
	c0.457-0.276,0.918-0.534,1.401-0.772v-1.953c-0.792-2.145-1.21-4.297-1.316-6.437L121.732,221.101z M121.732,239.147v12.111
	c0.476,0.11,0.939,0.233,1.401,0.372v-13.702C122.646,238.318,122.188,238.71,121.732,239.147z M123.77,237.47v14.341
	c0.469,0.163,0.944,0.324,1.402,0.468v-15.742C124.687,236.842,124.218,237.138,123.77,237.47z M125.802,236.185v16.342
	c0.466,0.181,0.942,0.372,1.399,0.58v-17.627c-0.225,0.104-0.458,0.21-0.687,0.314C126.268,235.927,126.049,236.041,125.802,236.185
	z M129.87,215.573v9.109c0.152,0.41,0.323,0.849,0.524,1.268c0.21,0.457,0.563,1.115,0.887,1.696v-14.741
	C130.698,213.733,130.232,214.63,129.87,215.573z M129.232,254.108v-19.382l-0.24,0.076c-0.39,0.123-0.766,0.257-1.143,0.419v18.177
	C128.307,253.612,128.769,253.87,129.232,254.108z M129.745,234.498l0.125,18.952c0.238-2.211,0.704-4.402,1.406-6.518v-13.778
	c-0.3,0.428-0.695,0.79-1.149,1.104c-0.019,0.044-0.132,0.115-0.256,0.172L129.745,234.498z M129.232,222.224v-4.297
	C129.001,219.309,129.001,220.767,129.232,222.224z M131.899,212.076v16.704c0.42,0.953,0.401,2.124,0,3.183v13.226
	c0.42-1.048,0.886-2.076,1.411-3.068v-31.444C132.794,211.113,132.337,211.581,131.899,212.076z M133.939,210.18v30.788
	c0.448-0.743,0.909-1.487,1.395-2.206v-29.463C134.844,209.562,134.388,209.856,133.939,210.18z M20.612,304.306v1.629
	c0.413,0.163,0.819,0.354,1.229,0.544v-4.169C21.411,302.952,21.002,303.61,20.612,304.306z M20.059,305.716v-0.361l-0.152,0.305
	L20.059,305.716z M22.395,301.562v5.203c0.409,0.225,0.808,0.477,1.209,0.715v-7.41C23.185,300.551,22.785,301.048,22.395,301.562z
	 M24.152,299.485v8.375c0.424,0.305,0.824,0.609,1.218,0.953v-10.502C24.957,298.684,24.546,299.075,24.152,299.485z
	 M65.091,275.472v4.746c0.295-0.249,0.582-0.487,0.882-0.705v9.204c-2.872,3.611-4.778,8.189-5.092,13.607
	c2.496,1.523,4.765,3.507,6.66,5.926c2.717,3.46-2.567,7.653-5.289,4.203c-5.774-7.356-16.102-9.224-24.249-4.622
	c-2.56,1.43-4.795-0.533-4.947-2.705v1.886l-0.552,0.333v-13.206c-0.411,0.134-0.819,0.306-1.23,0.486v13.521l-0.552,0.39v-13.673
	c-0.42,0.181-0.829,0.39-1.219,0.609v13.988l-0.559,0.457v-14.141c-0.413,0.229-0.824,0.487-1.223,0.743v14.483
	c0.434,0.764,0.933,1.478,1.371,2.239c2.23,3.793-3.548,7.3-5.778,3.498c-3.327-5.67-11.007-7.261-16.575-3.221
	c-3.649,2.647-7.475-2.735-3.825-5.374c3.128-2.277,6.692-3.421,10.213-3.555c1.674-3.944,3.833-7.194,6.399-9.825V2.042
	c0-0.109,0.019-0.219,0.062-0.311h0.896v176.213c0,0.123,0.099,0.229,0.224,0.229c0.113,0,0.21-0.105,0.21-0.229V1.741h0.256
	c0.044,0.096,0.071,0.2,0.071,0.31v291.11c6.609-5.712,15.5-7.875,25.551-7.608c1.03-10.311,9.968-16.923,19.011-16.771l0.157-0.229
	v6.918C65.673,275.472,65.387,275.472,65.091,275.472z M64.544,280.675v-5.185c-0.413,0.038-0.82,0.097-1.224,0.144v6.165
	C63.716,281.409,64.124,281.037,64.544,280.675z M62.758,282.353v-6.595c-0.409,0.085-0.82,0.19-1.228,0.328v7.59
	C61.929,283.21,62.34,282.78,62.758,282.353z M60.984,284.334v-8.044c-0.418,0.153-0.828,0.345-1.228,0.554v9.081
	C60.146,285.372,60.557,284.838,60.984,284.334z M59.193,286.743v-9.595c-0.417,0.257-0.819,0.515-1.219,0.819v10.787
	C58.355,288.06,58.766,287.393,59.193,286.743z M57.422,289.812l-0.004-11.386c-0.435,0.382-0.845,0.781-1.221,1.219v12.95
	C56.554,291.632,56.966,290.718,57.422,289.812z M55.64,294.187v-13.846c-0.478,0.639-0.886,1.344-1.226,2.087v17.142
	C54.696,297.684,55.107,295.902,55.64,294.187z M53.868,299.409v-15.476c-0.248,0.828-0.409,1.715-0.462,2.63
	c-0.043,0.753-0.014,1.528,0.09,2.315c0.053,0.909-0.266,1.857-0.857,2.621v7.632C53.048,299.217,53.459,299.304,53.868,299.409z
	 M52.076,299.037v-6.986c-0.349,0.277-0.762,0.497-1.218,0.61v6.194C51.266,298.903,51.667,298.95,52.076,299.037z M48.516,298.665
	v-6.218c-0.386-0.101-0.766-0.128-1.224-0.157v6.385C47.701,298.646,48.112,298.656,48.516,298.665z M48.969,292.557l0.106,6.127
	c0.409,0.028,0.824,0.076,1.224,0.105v-6.052c-0.381,0.029-0.79-0.019-1.224-0.143L48.969,292.557z M46.74,292.252l-1.221-0.028
	v6.527c0.401-0.048,0.811-0.067,1.221-0.09V292.252z M44.959,298.798v-6.574c-0.412,0-0.82,0-1.222,0v6.718
	C44.139,298.884,44.547,298.836,44.959,298.798z M43.181,299.046v-6.794c-0.411,0.01-0.82,0.029-1.224,0.058v6.975
	C42.366,299.189,42.77,299.113,43.181,299.046z M41.399,299.418v-7.071c-0.409,0.028-0.82,0.058-1.224,0.101v7.309
	C40.579,299.638,40.99,299.513,41.399,299.418z M39.622,299.933v-7.423c-0.409,0.038-0.82,0.095-1.229,0.161v7.681
	C38.802,300.209,39.213,300.065,39.622,299.933z M37.839,300.58v-7.833c-0.418,0.066-0.819,0.144-1.228,0.229v8.148
	C37.02,300.913,37.421,300.752,37.839,300.58z M36.059,301.38v-8.289c-0.416,0.104-0.815,0.19-1.221,0.304l0.004,8.634
	C35.249,301.8,35.648,301.581,36.059,301.38z M34.282,302.4v-8.853c-0.416,0.124-0.824,0.247-1.226,0.381v10.749
	C33.113,303.858,33.485,303.048,34.282,302.4z M27.162,310.576v-13.675c-0.422,0.296-0.833,0.601-1.233,0.93v11.478
	C26.354,309.709,26.771,310.128,27.162,310.576z M109.393,295.435v6.805h-0.554v-3.989c-0.413,0.129-0.819,0.271-1.228,0.386v3.621
	l-0.559,0.02v-3.449c-0.404,0.143-0.812,0.305-1.224,0.477v3.001l-0.552,0.024v-2.826c-0.411,0.152-0.82,0.324-1.221,0.506v2.363
	l-0.562,0.023v-2.148c-0.411,0.189-0.811,0.371-1.221,0.572v1.619l-0.552,0.029v-1.383c-0.416,0.2-0.824,0.41-1.228,0.634v0.825
	l-0.559,0.027v-0.552c-1.291,0.704-2.549,1.477-3.789,2.315c1.039,0.343,2.068,0.753,3.059,1.248c3.94,1.973,0.819,7.966-3.11,5.999
	c-5.046-2.54-11.21-2.222-16.104,0.8c-3.835,2.344-7.219-3.321-3.392-5.68c3.195-1.948,6.777-3.11,10.4-3.42
	c0.189-0.281,0.439-0.559,0.744-0.819c5.621-4.789,12.011-8.267,18.738-10.421c-7.419-14.545-25.228-15.803-36.291-7.408v12.03
	c0,0.49-0.381,0.882-0.859,0.882c-0.479,0-0.865-0.392-0.865-0.882v-27.262V105.521h0.704v102.825c0,0.124,0.09,0.22,0.215,0.22
	c0.108,0,0.214-0.096,0.214-0.22v-102.82h0.591v157.95c5.088-4.804,11.986-7.682,18.887-7.682c1.371-3.306,3.368-6.254,5.817-8.709
	c-0.567-11.501,5.349-22.03,14.489-27.977v8.367l-0.04,12.187l0.04,18.104c-8.209,1.82-14.927,7.775-17.859,15.505
	c6.806,1.195,13.198,4.706,17.859,10.776v11.396h0.009V295.435z M108.801,239.747v-11.709c-0.429,0.438-0.838,0.866-1.23,1.313
	v10.663C107.973,239.91,108.381,239.814,108.801,239.747z M107.02,251.479v-4.432c-0.416,0.162-0.82,0.325-1.224,0.495v4.298
	C106.2,251.697,106.604,251.593,107.02,251.479z M107.02,240.148v-10.125c-0.429,0.538-0.838,1.092-1.224,1.673v8.805
	C106.2,240.358,106.604,240.263,107.02,240.148z M105.233,251.993v-4.203c-0.409,0.182-0.825,0.4-1.219,0.62v4.011
	C104.413,252.27,104.829,252.135,105.233,251.993z M105.233,240.672v-8.128c-0.444,0.705-0.857,1.459-1.219,2.221v6.355
	C104.413,240.968,104.829,240.815,105.233,240.672z M103.455,252.631v-3.906c-0.281,0.161-0.57,0.352-0.847,0.528l-0.372,0.253
	v3.616C102.636,252.955,103.046,252.793,103.455,252.631z M103.455,241.349v-5.364c-0.494,1.19-0.915,2.431-1.219,3.697v2.22
	C102.636,241.711,103.037,241.521,103.455,241.349z M101.673,253.384v-3.478c-0.457,0.343-0.866,0.695-1.219,0.999v3.079
	C100.853,253.765,101.265,253.584,101.673,253.384z M99.897,254.27v-2.849c-0.473,0.457-0.864,0.857-1.23,1.276v2.249
	C99.073,254.718,99.482,254.488,99.897,254.27z M98.115,255.29v-1.926c-0.439,0.534-0.845,1.097-1.23,1.706v1.001
	C97.296,255.813,97.699,255.548,98.115,255.29z M96.338,256.472v-0.501c-0.152,0.271-0.296,0.52-0.434,0.801L96.338,256.472z
	 M89.768,262.989v-0.511c-0.411-0.009-0.815-0.019-1.224-0.009v2.239C88.935,264.122,89.348,263.542,89.768,262.989z M87.99,265.571
	v-3.093c-0.409,0.024-0.819,0.071-1.22,0.105v5.154C87.147,267.001,87.551,266.267,87.99,265.571z M86.208,268.868v-6.213
	c-0.409,0.066-0.819,0.143-1.218,0.219v9.019C85.342,270.859,85.751,269.85,86.208,268.868z M84.43,272.794v-9.796
	c-0.409,0.105-0.824,0.21-1.219,0.334v9.548C83.618,272.833,84.026,272.812,84.43,272.794z M82.65,272.927v-9.428
	c-0.411,0.137-0.819,0.301-1.226,0.462v9.109C81.835,273.023,82.239,272.956,82.65,272.927z M77.86,265.81v7.966
	c0.412-0.114,0.819-0.19,1.231-0.286v-8.423C78.671,265.304,78.262,265.542,77.86,265.81z M76.08,267.066v5.271
	c0.623,0.476,1,1.02,1.18,1.592l0.054-7.758C76.888,266.448,76.479,266.753,76.08,267.066z M75.531,271.937v-4.411
	c-0.422,0.361-0.838,0.732-1.224,1.133v2.497C74.72,271.384,75.131,271.642,75.531,271.937z M73.748,270.85v-1.629
	c-0.336,0.356-0.667,0.743-0.976,1.134C73.102,270.517,73.43,270.67,73.748,270.85z M79.643,264.789v8.586
	c0.41-0.076,0.814-0.152,1.226-0.209v-8.977C80.457,264.38,80.049,264.581,79.643,264.789z M108.801,246.532
	c-0.42,0.105-0.829,0.22-1.23,0.353v4.46l0.088-0.314C107.925,249.506,108.305,248,108.801,246.532z M70.2,276.776l0.153-0.104
	l-0.153-0.066V276.776z M68.476,105.153V94.896h0.695v10.258H68.476z M68.476,94.156v-9.719h0.695v9.719H68.476z M68.476,82.96
	v-8.604h0.695v8.604H68.476z M68.476,71.421v-7.138h0.695v7.138H68.476z M68.476,59.853v-5.646h0.695v5.646H68.476z M68.476,48.309
	V44.14h0.695v4.169H68.476z M68.476,36.751v-2.897h0.695v2.897H68.476z M69.609,105.153V94.896H70.2v10.258H69.609z M69.609,94.156
	v-9.719H70.2v9.719H69.609z M69.609,82.96v-8.604H70.2v8.604H69.609z M69.609,71.421v-7.138H70.2v7.138H69.609z M69.609,59.853
	v-5.646H70.2v5.646H69.609z M69.609,48.309V44.14H70.2v4.169H69.609z M69.609,36.751v-2.897H70.2v2.897H69.609z M139.399,281.333
	c-0.468,0-0.849-0.335-0.849-0.754V31.99h1.706v248.589C140.255,280.998,139.875,281.333,139.399,281.333z M111.44,311.662V117.351
	h0.554v-16.934V16.669h0.427v83.748v16.934h0.739v194.312c0,0.313-0.381,0.582-0.861,0.582
	C111.821,312.244,111.44,311.976,111.44,311.662z M302.774,69.144V58.881h0.421v10.263H302.774z M302.774,58.147v-9.711h0.421v9.711
	H302.774z M302.774,46.96v-8.605h0.421v8.605H302.774z M302.774,35.401v-7.137h0.421v7.137H302.774z M302.774,23.844v-5.647h0.421
	v5.647H302.774z M302.774,12.294V8.115h0.421v4.179H302.774z M239.022,321.791V10.198h0.258l0.001,28.043l0.256-0.486V10.198h0.344
	v26.985l0.261-0.495V10.193h0.34v25.823l0.256-0.477V10.193h0.344l0.01,24.655l0.237-0.471V10.193h0.296v311.594
	c0,0.819-0.592,1.481-1.307,1.481C239.595,323.269,239.022,322.61,239.022,321.791z M147.823,263.418
	c4.028,1.819,1.161,7.908-2.861,6.107c-0.59-0.275-1.147-0.495-1.71-0.724v-7.099C144.765,262.15,146.292,262.722,147.823,263.418z
	 M232.115,289.812c0.677,0.4,1.247,0.772,1.704,1.164c0.772-0.144,1.539-0.253,2.306-0.354v6.728
	c-3.354,0.486-6.632,1.658-9.691,3.593c-3.79,2.42-7.261-3.192-3.477-5.604c0.694-0.448,1.38-0.848,2.097-1.219
	c-4.098-1.125-8.618-0.629-12.445,1.457c-3.965,2.154-7.032-3.678-3.087-5.822C216.597,285.867,225.263,285.82,232.115,289.812z
	 M184.347,235.422v3.392c0.408,0.229,0.828,0.496,1.219,0.754v-3.688l0.563,0.229v3.83c0.409,0.276,0.829,0.567,1.228,0.877v-4.159
	l0.543,0.271v4.326c0.434,0.333,0.829,0.676,1.226,1.028v-4.678l0.557,0.324v4.85c0.42,0.399,0.829,0.81,1.239,1.229v-5.322
	l0.543,0.39v5.509c0.43,0.481,0.838,0.958,1.219,1.463v-6.061l0.555,0.458v6.316c0.438,0.571,0.838,1.173,1.219,1.773v-7.01
	l0.562,0.529v7.39c0.439,0.738,0.843,1.521,1.219,2.302v-8.366c0.181,0.209,0.363,0.429,0.564,0.647v8.948
	c0.475,1.124,0.879,2.296,1.199,3.497v-10.835l0.314,0.448l0.247-0.2v12.874c0.124,0.57,0.21,1.143,0.296,1.724
	c0.3-0.705,0.6-1.386,0.935-2.067v-13.502l0.557-0.41v12.864c0.386-0.711,0.787-1.41,1.214-2.077v-11.615l0.563-0.363v11.149
	c0.381-0.553,0.801-1.106,1.228-1.64v-10.224l0.555-0.306v9.854c0.391-0.467,0.799-0.916,1.219-1.354v-9.109l0.547-0.262v8.8
	c0.411-0.39,0.82-0.79,1.222-1.166V240.9l0.556-0.229v7.876c0.412-0.344,0.812-0.672,1.231-1.001v-7.308l0.552-0.19v7.09
	c0.41-0.302,0.81-0.582,1.23-0.873v-6.579l0.533-0.139v6.346c0.418-0.248,0.819-0.51,1.237-0.748v-5.879l0.554-0.1v5.66
	c0.408-0.234,0.811-0.443,1.229-0.662v-5.208l0.547-0.09v5.031c0.416-0.201,0.826-0.372,1.226-0.553v-4.608l0.562-0.052v4.412
	c0.401-0.162,0.811-0.319,1.221-0.467v-4.003l0.553-0.019v3.82c0.41-0.142,0.818-0.271,1.23-0.38v-3.44l0.547,0.019v3.25
	c0.398-0.1,0.811-0.219,1.219-0.319v-2.863l0.559,0.052v2.701c0.404-0.104,0.814-0.172,1.219-0.252v-2.312l0.562,0.081v2.136
	c0.4-0.076,0.799-0.125,1.191-0.167v-1.75l0.553,0.11v1.559c0.408-0.038,0.818-0.077,1.239-0.096v-1.186l0.552,0.147v1.001
	c0.399-0.021,0.815-0.028,1.219-0.039v-0.609l0.559,0.19v0.419c0.404,0.011,0.819,0.028,1.215,0.048
	c2.086,0.104,4.098,0.41,6.068,0.943v7.061c-11.104-4.021-24.369,1.097-30.092,12.007c9.491,1.172,18.24,6.728,22.938,15.666
	c2.047,3.906-3.89,7.126-5.942,3.229c-6.36-12.11-22.197-16.266-34.118-8.48c0.726,0.914,1.401,1.896,1.997,2.945
	c2.146,3.829-3.669,7.232-5.826,3.401c-2.785-4.917-8.044-7.985-13.723-8.1c-4.446-0.086-4.156-6.756,0.295-6.681
	c4.459,0.086,8.708,1.463,12.273,3.859c2.678-1.943,5.508-3.415,8.432-4.412c-1.93-16.174-19.294-25.918-34.602-17.98
	c-3.999,2.077-6.958-3.84-2.96-5.908c3.659-1.905,7.422-3.01,11.129-3.421l0.555-0.237v0.181c0.413-0.029,0.812-0.067,1.224-0.085
	v-0.383l0.561-0.104v0.48c0.402-0.023,0.82-0.023,1.217-0.023v-0.677l0.552-0.075v0.77c0.411,0,0.819,0.012,1.23,0.049v-0.943
	l0.551-0.048v1.039c0.4,0.038,0.82,0.085,1.219,0.133v-1.239l0.549-0.018v1.323c0.413,0.076,0.819,0.134,1.228,0.216v-1.53
	l0.555,0.02v1.62c0.417,0.095,0.819,0.181,1.237,0.295v-1.839l0.537,0.047v1.936c0.421,0.114,0.82,0.247,1.231,0.376v-2.168
	l0.547,0.095v2.269c0.424,0.143,0.824,0.295,1.234,0.447v-2.506l0.547,0.114v2.611c0.439,0.182,0.883,0.381,1.301,0.571v-2.863
	l0.559,0.138v2.992c0.42,0.201,0.819,0.42,1.219,0.657v-3.277L184.347,235.422z M17.249,213.382V10.188h0.437v203.193
	c0,0.134-0.1,0.219-0.208,0.219C17.353,213.601,17.249,213.516,17.249,213.382z M145.258,237.546
	c-0.704,0.601-1.361,1.24-2.001,1.896v-7.822C145.935,231.639,147.985,235.26,145.258,237.546z M175.847,87.148
	c-0.363,1.458-2.517,0.958-2.154-0.501c0.104-0.428,0.104-44.289,0.048-79.983l2.205,0.98l0.04,37.419
	C176.003,65.495,176.017,86.467,175.847,87.148z M214.085,68.915v-9.719h1.725v9.719H214.085z M214.085,57.737v-8.613h1.725v8.613
	H214.085z M214.085,46.179v-7.137h1.725v7.137H214.085z M214.085,34.62v-5.659h1.725v5.659H214.085z M214.085,23.062v-4.169h1.725
	v4.169H214.085z M243.205,191.904V55.47h0.43v136.435c0,0.123-0.095,0.208-0.21,0.208S243.205,192.027,243.205,191.904z
	 M214.085,79.921V69.658h1.725v10.263H214.085z M149.88,197.24c-0.318-0.306-0.658-0.601-1.029-0.839v-7.5
	c0.353,0.115,0.697,0.22,1.029,0.344V197.24z M148.103,195.963c-0.328-0.162-0.672-0.323-1.034-0.429v-7.471
	c0.106,0.172,0.2,0.344,0.295,0.516c0.25,0.047,0.501,0.094,0.739,0.152V195.963z M146.336,195.344
	c-0.344-0.067-0.688-0.114-1.039-0.124v-38.878c0.314-0.743,0.656-1.458,1.039-2.182v23.836c-0.429,1.319-0.672,2.721-0.672,4.169
	c0,1.449,0.243,2.83,0.672,4.116V195.344z M144.563,195.229c-0.281,0.019-0.554,0.047-0.819,0.094v5.966
	c0.327,0.282,0.6,0.582,0.819,0.943v3.793c-0.22,0.372-0.492,0.71-0.819,1.001l-0.21,0.105l0-197.053h0.21l0,151.189
	c0.21-1.01,0.484-2.011,0.819-2.973V195.229z M147.068,152.854l0.268-0.438V23.625h0.766l0,150.803
	c-0.372,0.543-0.728,1.134-1.034,1.734V152.854z M148.851,56.056h0.743l0-32.422h0.287v148.73c-0.357,0.338-0.709,0.71-1.029,1.111
	V56.056z M150.632,23.625h0.658v123.798l0.363-0.391v11.24c-0.411,0.899-0.752,1.819-1.021,2.748L150.632,23.625z M154.183,127.146
	c0.3-0.752,0.658-1.491,1.043-2.21v27.881c-0.363,0.419-0.725,0.839-1.043,1.277V127.146z M159.5,119.018
	c0.327-0.353,0.681-0.706,1.043-1.028v11.115c-0.43,0.919-0.771,1.872-1.043,2.824V119.018z M160.543,117.541
	c-0.399-0.581-0.743-1.183-1.043-1.811v-11.945c0.251-0.52,0.537-1.053,0.872-1.548c-0.312-0.505-0.6-1.01-0.872-1.524V84.646
	c0.309-0.639,0.662-1.248,1.043-1.839V117.541z M158.752,113.768c-0.753-2.593-0.783-5.413,0-8.043V113.768z M158.752,98.959
	c-0.52-1.439-0.868-2.953-1.021-4.545v-3.427c0.152-1.59,0.501-3.139,1.021-4.582V98.959z M161.268,81.703
	c0.333-0.438,0.677-0.868,1.039-1.287v45.554c-0.371,0.528-0.716,1.086-1.039,1.647V81.703z M163.048,79.63
	c0.33-0.343,0.684-0.663,1.03-0.972v45.1c-0.358,0.392-0.7,0.792-1.03,1.2V79.63z M166.603,3.471l0.268,0.114v29.196l0.248,0.101
	V3.686l0.362,0.161v29.197l0.238,0.129l0-29.226l0.354,0.171l0.009,29.234l0.238,0.115l0-29.253l0.344,0.161l0,29.272l0.265,0.12
	V4.485l0.33,0.152v29.311l0.261,0.125V4.757l0.335,0.144v29.32c0,0.033,0.256,0.171,0.256,0.144V5.014l0.334,0.152v29.302
	c0,0.028,0.266,0.19,0.266,0.143V5.276l0.344,0.162l0,29.281c0,0.021,0.251,0.173,0.251,0.14l0-29.321l0.344,0.154l0,29.271
	c0,0.038,0.251,0.18,0.251,0.152V5.805l0.305,0.129v82.345c0,3.325-3.735,4.254-5.603,2.667L166.603,3.471z M166.604,96.968
	c5.422-2.64,11.882-1.172,15.342,3.688c2.567,3.582-2.906,7.548-5.461,3.975c-1.556-2.211-4.479-2.889-6.898-1.773
	c-0.161,0.134-0.371,0.258-0.609,0.354l-0.372,0.246c-0.268,0.192-0.533,0.334-0.801,0.448c-0.467,0.324-0.857,0.677-1.191,1.059
	L166.604,96.968L166.604,96.968z M159.5,139.934c0.309-0.534,0.662-1.087,1.043-1.578v15.69c-0.371-0.076-0.716-0.181-1.043-0.353
	V139.934z M161.268,137.408c0.333-0.381,0.686-0.753,1.039-1.105v17.533c-0.325,0.123-0.679,0.21-1.039,0.229V137.408z
	 M163.048,135.626c0.33-0.286,0.684-0.562,1.03-0.829v17.677c-0.27,0.408-0.619,0.733-1.03,1V135.626z M164.812,134.302
	c0.354-0.209,0.695-0.419,1.039-0.6v8.519c-0.399,0.528-0.753,1.153-1.039,1.791V134.302z M166.604,133.319
	c2.772-1.285,6.002-1.771,9.453-1.065c4.345,0.886,2.83,7.428-1.505,6.556c-3.165-0.658-6.023,0.495-7.948,2.516V133.319z
	 M150.632,163.937c0.335-0.162,0.681-0.324,1.021-0.462v7.456c-0.353,0.237-0.697,0.506-1.021,0.758V163.937z M152.401,163.183
	c0.337-0.123,0.681-0.228,1.029-0.342v21.62c-0.348-0.027-0.701-0.099-1.029-0.229v-12.626c0.26-0.552,0.552-1.076,0.852-1.592
	c-0.291,0.135-0.57,0.307-0.852,0.454V163.183z M154.183,162.621c0.328-0.095,0.69-0.171,1.043-0.247v21.773
	c-0.326,0.144-0.697,0.248-1.043,0.286V162.621z M155.949,162.24c0.344-0.067,0.684-0.109,1.029-0.152v20.134
	c-0.189,0.611-0.57,1.115-1.029,1.487V162.24z M157.731,162.012c0.249-0.02,0.492-0.048,0.738-0.048l0.282-0.019v11.711
	c-0.411,0.753-0.753,1.571-1.021,2.425V162.012z M161.268,161.839l0.857-0.037l0.182-0.076v7.719
	c-0.354,0.295-0.706,0.601-1.039,0.915V161.839L161.268,161.839z M163.048,161.383c0.339-0.144,0.684-0.276,1.03-0.401v7.253
	c-0.346,0.219-0.7,0.438-1.03,0.656V161.383z M164.812,160.716c0.354-0.104,0.707-0.209,1.039-0.301v6.971
	c-0.344,0.147-0.686,0.301-1.039,0.457V160.716z M166.604,160.22c4.402-0.98,9.225-0.477,13.779,2.059
	c3.83,2.154,0.448,8.015-3.38,5.851c-3.458-1.915-7.154-2.087-10.399-1.01V160.22z M151.653,183.805
	c-0.457-0.354-0.829-0.878-1.021-1.539v-4.761c0.192-1.42,0.543-2.82,1.021-4.145V183.805z M157.112,150.958
	c0.345-0.3,0.476-0.391,0.609-0.51l0.01-29.382c0.325-0.429,0.667-0.829,1.021-1.239v33.271c-0.31-0.368-0.582-0.834-0.729-1.387
	c-0.113-0.409-0.225-0.8-0.291-1.2C157.512,150.634,157.313,150.796,157.112,150.958z M155.949,123.648
	c0.321-0.528,0.671-1.058,1.029-1.582v29.016c-0.542,0.49-0.78,0.725-1.029,0.981V123.648z M152.401,146.356
	c0.337-0.324,0.681-0.62,1.029-0.906c-0.478-1.543-0.814-2.973-1.029-4.421v-7.499c0.215-1.496,0.561-2.954,1.029-4.384v16.181
	v9.785c-0.357,0.553-0.701,1.11-1.029,1.687V146.356z M151.653,200.271c-0.21-0.801-0.573-1.516-1.021-2.168v-8.538
	c0.344,0.147,0.69,0.319,1.021,0.505V200.271z M147.013,208.256c1.38-1.545,2.943-2.902,4.64-4.013
	c0.247-0.114,0.494-0.258,0.744-0.399v-13.312c0.346,0.22,0.694,0.468,1.029,0.734v12.006l0.752-0.376v-10.978
	c0.342,0.338,0.714,0.69,1.043,1.091v9.396l0.718-0.305v-8.195c0.38,0.524,0.725,1.077,1.039,1.621v6.174l0.743-0.275v-4.241
	c0.467,1.268,0.739,2.602,0.82,3.936l0.2-0.066l0.668-0.162l0.085-28.425V161.94l1.043-0.062v9.272
	c-0.376,0.399-0.729,0.847-1.043,1.314v28.405c2.863-0.647,5.956-0.781,8.971-0.286c4.379,0.705,3.121,7.31-1.25,6.585
	c-5.058-0.839-10.305,0.791-14.126,4.278c0.792,0.306,1.554,0.7,2.302,1.153v-0.152l0.547-0.162v0.695
	c0.272,0.177,0.533,0.387,0.792,0.595l0.439,0.382v-1.968l0.551-0.104v2.578c0.399,0.4,0.762,0.828,1.12,1.271l0.1,0.147v-4.207
	l0.554-0.062l0.009,5.088c0.269,0.401,0.506,0.82,0.726,1.281c0.189,0.401,0.342,0.739,0.484,1.102l0.009-7.537l0.555-0.01v9.495
	c0.403-0.409,0.799-0.8,1.228-1.177v-8.271l0.554,0.058v7.752c0.399-0.31,0.799-0.644,1.228-0.919v-6.666l0.538,0.114v6.165
	c0.401-0.267,0.814-0.495,1.245-0.744v-5.088l0.533,0.2v4.612c0.403-0.2,0.824-0.39,1.23-0.562v-3.526l0.556,0.276v3.05
	c0.386-0.172,0.815-0.3,1.224-0.438v-1.868c0.182,0.133,0.362,0.267,0.554,0.4v1.315c3.535-0.921,7.413-0.801,11.197,0.71
	c4.111,1.644,1.496,7.838-2.598,6.207c-7.471-2.958-15.402,2.583-15.966,10.148c-0.342,4.441-6.995,4.117-6.651-0.319
	c0.272-3.578,1.572-6.866,3.583-9.6c-1.6,1.306-4.308,1.262-5.28-1.277c-0.067-0.162-0.132-0.343-0.224-0.51
	c-0.118-0.262-0.252-0.472-0.386-0.672l-0.113-0.182l-0.21-0.284c-0.349-0.478-0.707-0.811-1.078-1.136
	c-2.782-2.267-6.669-1.995-9.204,0.263v-7.599c0.914-0.338,1.858-0.609,2.831-0.739C146.02,209.923,146.292,209.065,147.013,208.256
	z M164.812,95.914c0.196,0.582,0.416,1.13,0.677,1.664l0.362-0.211v8.597c-1.383,2.301-1.32,5.192,0,7.403v8.699
	c-0.372,0.314-0.704,0.634-1.039,0.935V95.914z M166.508,122.314l0.095-7.946c0.842,0.938,1.992,1.666,3.402,2.01
	c4.287,1.058,2.54,7.537-1.745,6.499c-0.582-0.153-1.134-0.324-1.657-0.524L166.508,122.314z M289.506,274.651v1.125l0.491-0.162
	C289.841,275.291,289.679,274.967,289.506,274.651z M288.954,275.977v-2.306c-0.381-0.63-0.792-1.239-1.23-1.819v4.603
	C288.139,276.29,288.534,276.13,288.954,275.977z M287.167,276.7v-5.583c-0.416-0.515-0.842-1.01-1.311-1.487v7.666
	C286.295,277.092,286.724,276.882,287.167,276.7z M246.708,230.286v16.732c0.415,0.334,0.814,0.676,1.223,1.029v-16.161
	C247.571,231.287,247.15,230.771,246.708,230.286z M246.708,259.72v18.334c0.395-0.4,0.805-0.791,1.223-1.152v-17.656
	C247.513,259.358,247.103,259.529,246.708,259.72z M246.151,278.606v-18.586c-0.443,0.281-0.85,0.61-1.23,0.978v19.001
	C245.32,279.521,245.727,279.064,246.151,278.606z M246.151,246.58v-16.856c-0.383-0.362-0.801-0.687-1.23-0.972v16.972
	C245.341,245.988,245.749,246.274,246.151,246.58z M248.489,232.858v15.685c0.404,0.392,0.815,0.8,1.224,1.221v-2.173
	c-1.057-1.088-1.304-2.868-0.637-4.279c0.296-0.924,0.489-1.877,0.6-2.849l0.037-0.229v-3.02c-0.058-0.448-0.113-0.877-0.203-1.316
	C249.286,234.794,248.942,233.772,248.489,232.858z M248.489,259.102v17.332c0.395-0.323,0.797-0.657,1.224-0.962v-16.495
	C249.296,258.987,248.884,259.034,248.489,259.102z M250.268,248.048v2.311c0.318,0.357,0.637,0.72,0.962,1.111
	c0.1,0.117,0.172,0.246,0.256,0.352v-3.292C251.029,248.447,250.609,248.276,250.268,248.048z M250.268,258.977v16.104
	c0.39-0.277,0.811-0.538,1.218-0.791v-15.142C251.087,259.053,250.667,259.005,250.268,258.977z M252.05,248.562v3.888
	c0.408,0.067,0.819,0.144,1.219,0.229v-4.136c-0.318-0.009-0.543-0.02-0.592-0.009C252.458,248.552,252.239,248.562,252.05,248.562z
	 M252.05,259.282v14.665c0.386-0.248,0.809-0.458,1.219-0.676v-13.494C252.878,259.577,252.468,259.415,252.05,259.282z
	 M253.829,248.581v4.24c0.406,0.134,0.807,0.257,1.222,0.409v-4.578L253.829,248.581z M253.829,260.131v12.863
	c0.397-0.2,0.807-0.391,1.222-0.553v-11.273C254.679,260.759,254.263,260.416,253.829,260.131z M255.598,248.687v4.774
	c0.415,0.181,0.833,0.39,1.235,0.618v-5.24c-0.287-0.047-0.563-0.091-0.85-0.105L255.598,248.687z M255.598,261.855v10.348
	c0.415-0.172,0.815-0.311,1.235-0.447v-7.28c-0.139-0.22-0.24-0.477-0.335-0.752C256.288,263.026,255.983,262.417,255.598,261.855z
	 M257.384,248.905v5.489c0.421,0.257,0.829,0.537,1.22,0.866v-6.079C258.204,249.087,257.793,249,257.384,248.905z M257.384,265.19
	v6.365c0.4-0.115,0.811-0.238,1.22-0.362v-5.308C258.155,265.771,257.747,265.542,257.384,265.19z M259.157,249.324v6.398
	c0.439,0.382,0.848,0.819,1.229,1.273v-7.271C259.986,249.592,259.584,249.448,259.157,249.324z M259.157,266.001v5.068
	c0.409-0.104,0.819-0.191,1.237-0.262v-4.922C259.986,266.001,259.566,266.038,259.157,266.001z M260.949,249.934v6.899
	c0.371-0.105,0.775-0.22,1.219-0.313v-6.042C261.765,250.278,261.353,250.105,260.949,249.934z M260.949,265.714v4.994
	c0.395-0.067,0.815-0.124,1.219-0.173v-5.649C261.835,265.237,261.406,265.523,260.949,265.714z M262.727,250.744v5.67
	c0.376-0.104,0.794-0.172,1.214-0.253v-4.731C263.56,251.192,263.14,250.964,262.727,250.744z M262.727,264.104v6.38
	c0.403-0.033,0.812-0.062,1.214-0.092v-7.508c-0.295,0.072-0.591,0.134-0.904,0.21C262.987,263.466,262.884,263.8,262.727,264.104z
	 M264.501,262.778v7.605c0.412-0.01,0.82,0,1.23,0.008v-7.804C265.321,262.646,264.913,262.712,264.501,262.778z M266.284,253.078
	v2.754c0.411-0.062,0.819-0.104,1.24-0.114v-1.581C267.112,253.765,266.704,253.413,266.284,253.078z M265.731,255.908v-3.268
	c-0.4-0.296-0.81-0.591-1.23-0.857v4.288C264.894,256.014,265.303,255.957,265.731,255.908z M266.284,262.522v7.899
	c0.411,0.019,0.819,0.047,1.24,0.1v-8.09C267.104,262.465,266.695,262.483,266.284,262.522z M268.057,254.67v1.001
	c0.306-0.029,0.609-0.039,0.924-0.039C268.676,255.299,268.37,254.985,268.057,254.67z M268.057,262.407v8.177
	c0.416,0.057,0.819,0.124,1.233,0.199v-8.386C268.876,262.389,268.478,262.389,268.057,262.407z M269.849,262.427v8.471
	c0.404,0.086,0.819,0.182,1.229,0.296v-8.69C270.668,262.465,270.253,262.436,269.849,262.427z M271.63,262.56v8.786
	c0.4,0.134,0.811,0.267,1.229,0.41v-9.024C272.44,262.664,272.03,262.617,271.63,262.56z M273.403,262.836v9.129
	c0.409,0.152,0.819,0.324,1.229,0.515v-9.367C274.223,263.008,273.812,262.922,273.403,262.836z M275.184,263.256v9.472
	c0.411,0.209,0.814,0.419,1.23,0.639v-9.73C275.998,263.504,275.595,263.379,275.184,263.256z M276.961,263.837v9.854
	c0.415,0.242,0.815,0.509,1.226,0.771v-10.147C277.776,264.133,277.376,263.979,276.961,263.837z M280.521,265.466v10.769
	c0.43,0.361,0.838,0.733,1.229,1.115v-11.125C281.358,265.962,280.941,265.714,280.521,265.466z M280.083,275.862l-0.116-10.691
	c-0.399-0.229-0.794-0.409-1.22-0.596v10.268c0.412,0.285,0.82,0.609,1.22,0.934L280.083,275.862z M282.303,266.591v11.325
	c0.296,0.3,0.562,0.586,0.829,0.909l0.399-0.246v-11.083C283.132,267.19,282.712,266.886,282.303,266.591z M284.085,267.953v10.301
	c0.404-0.229,0.809-0.467,1.224-0.667v-8.519C284.914,268.688,284.508,268.306,284.085,267.953z M301.485,285.839V138.466
	c0.066,0.124,0.237,0.41,0.237,0.381v-32.045c0-0.029-0.171-0.305-0.237-0.419V73.727h1.289v-4.202h0.421v4.202h0.892v37.726
	c-0.076-0.129-0.211-0.372-0.211-0.349v31.851l0.211,0.4v131.145c11.252,1.764,21.104,9.749,24.329,21.287
	c11.589-0.361,21.854,7.09,24.995,18.115c1.214,4.26-5.217,6.232-6.428,1.982c-2.238-7.861-9.337-13.226-17.503-13.436
	c0.019,0.409,0.036,0.818,0.036,1.247c0,0.411-0.008,0.82-0.036,1.173c4.497,1.153,8.793,3.115,12.644,5.86
	c3.578,2.544-0.381,8.028-3.959,5.47c-9.001-6.412-21.025-7.662-31.422-3.221c-4.143,1.762-6.611-4.369-2.49-6.137
	c3.869-1.649,7.904-2.64,11.963-3.012c-11.402-12.197-32.685-8.69-39.793,7.647c-1.782,4.12-7.891,1.587-6.113-2.53
	c0.682-1.539,1.464-3.001,2.312-4.373c-3.177-0.896-6.48-1.335-9.795-1.239c-0.707,2.182-3.717,3.669-5.761,1.42
	c-3.389-3.755-7.876-6.185-12.696-7.166V282.36v-0.476v-60.137v-11.367c2.142,3.2,3.382,7.069,3.301,11.167
	c4.532,2.621,7.819,7.232,8.943,12.722c0.443,2.229,0.524,4.535,0.266,6.808l-0.046,0.419c9.375,0.972,17.484,7.038,21.726,15.237
	c0.064,0.109,0.113,0.242,0.161,0.371c8.139,2.74,14.75,9.077,18.019,17.124c0.496-0.038,0.963-0.081,1.45-0.091V167.72h0.436
	v116.642l-0.027,5.526c0.995-0.027,1.992,0,3.002,0.067v-3.687C301.522,286.135,301.485,285.991,301.485,285.839z M321.715,297.007
	v2.83c0.323,0.343,0.609,0.696,0.896,1.059C322.409,299.552,322.119,298.245,321.715,297.007z M321.169,299.228v-3.746
	c-0.359-0.9-0.762-1.763-1.236-2.591v5.087C320.361,298.379,320.771,298.798,321.169,299.228z M319.378,297.465v-5.518
	c-0.371-0.601-0.771-1.191-1.2-1.739v6.236C318.589,296.76,318.988,297.111,319.378,297.465z M317.626,295.996v-6.498
	c-0.39-0.476-0.801-0.93-1.219-1.392v7.004C316.815,295.387,317.216,295.673,317.626,295.996z M287.915,283.685v3.86
	c0.413,1.357,0.705,2.734,0.877,4.145l0.355-0.134v-8.489C288.734,283.257,288.328,283.466,287.915,283.685z M287.356,285.925
	v-1.936l-0.642,0.363C286.943,284.896,287.167,285.4,287.356,285.925z M289.698,282.818v8.567c0.407-0.125,0.818-0.248,1.218-0.368
	v-8.686C290.517,282.466,290.105,282.637,289.698,282.818z M291.479,282.112v8.758c0.418-0.114,0.811-0.19,1.229-0.295v-8.843
	C292.29,281.856,291.897,281.98,291.479,282.112z M293.262,281.579v8.891c0.409-0.076,0.808-0.161,1.228-0.219v-8.957
	C294.069,281.389,293.671,281.475,293.262,281.579z M295.032,281.189v8.984c0.411-0.047,0.828-0.094,1.234-0.132v-9.044
	C295.86,281.047,295.452,281.113,295.032,281.189z M296.814,280.933v9.042c0.411-0.038,0.819-0.057,1.219-0.066v-9.063
	C297.634,280.874,297.226,280.885,296.814,280.933z M302.171,286.734v3.27c0.39,0.027,0.801,0.076,1.214,0.118v-3.367
	c-0.181,0.056-0.376,0.094-0.591,0.094C302.561,286.849,302.332,286.811,302.171,286.734z M303.943,286.315v3.896
	c0.408,0.067,0.808,0.134,1.219,0.21v-8.852c-0.358-0.096-0.725-0.172-1.075-0.237v4.506
	C304.087,286.021,304.038,286.163,303.943,286.315z M305.724,281.723v8.813c0.401,0.082,0.819,0.182,1.23,0.296v-8.72
	C306.543,281.98,306.125,281.847,305.724,281.723z M307.505,282.323v8.633c0.406,0.105,0.811,0.252,1.222,0.371v-8.519
	C308.315,282.628,307.911,282.457,307.505,282.323z M309.269,283.038v8.471c0.421,0.143,0.829,0.295,1.24,0.447v-8.29
	C310.098,283.447,309.689,283.237,309.269,283.038z M311.052,283.972v8.214c0.418,0.172,0.828,0.362,1.228,0.544v-8.006
	C311.88,284.448,311.48,284.2,311.052,283.972z M312.853,285.096v7.909c0.398,0.2,0.811,0.4,1.209,0.648v-7.652
	C313.672,285.678,313.261,285.372,312.853,285.096z M314.62,286.459v7.499c0.414,0.238,0.824,0.5,1.225,0.762v-7.165
	C315.454,287.173,315.043,286.802,314.62,286.459z M277.108,298.979c1.594-1.591,3.354-2.974,5.223-4.154l-0.019-0.211
	c-0.542-21.802-31.217-23.073-35.944-3.491c4.445,0.986,8.652,2.949,12.274,5.845C264.883,296.158,271.25,296.845,277.108,298.979z
	 M302.064,107.536v32.016l0.268,0.468v-32.036C302.332,107.964,302.064,107.497,302.064,107.536z M302.667,108.736v31.931
	l0.266,0.477v-31.95C302.933,109.146,302.667,108.698,302.667,108.736z M303.276,109.898v31.912l0.237,0.466l0.009-31.9
	C303.522,110.337,303.276,109.879,303.276,109.898z M165.67,32.114l0.181,0.096v57.797c-0.191-0.429-0.309-0.942-0.309-1.521v-1.134
	c-0.282,0.572-0.515,1.172-0.721,1.792V78.033c0.25-0.181,0.488-0.352,0.721-0.523l0-74.521L165.67,32.114z"/>
</svg>
