<?xml version="1.0" encoding="utf-8"?>
<!-- Generator: Adobe Illustrator 19.1.0, SVG Export Plug-In . SVG Version: 6.00 Build 0)  -->
<svg version="1.1" id="Layer_1" xmlns="http://www.w3.org/2000/svg" xmlns:xlink="http://www.w3.org/1999/xlink" x="0px" y="0px"
	 width="1140px" height="13px" viewBox="0 0 1140 13" style="enable-background:new 0 0 1140 13;" xml:space="preserve">
<style type="text/css">
	.st0{fill:#D6D6D6;}
	.st1{fill:#A3A3A3;}
</style>
<rect y="6.8" class="st0" width="1140" height="1"/>
<path class="st1" d="M589.5,6.7h-2.7c-0.8-3.1-3-6.7-5.8-6.7c-2.7,0-4.8,3.3-5.7,6.4c-0.9-3-3-6.4-5.6-6.4c-2.7,0-4.8,3.3-5.7,6.4
	c-0.9-3-3-6.4-5.6-6.4c-2.8,0-4.9,3.6-5.8,6.7h-2.2v1h2c-0.1,0.5-0.1,1-0.1,1.5c0,1.6,0.6,2.7,1.9,3.2c1,0.4,2.2,0.5,3.7,0.5h0.3
	h0.9c1.9,0,4.1,0,5.1-1.7c0.3,0.5,0.8,0.9,1.4,1.2c1,0.4,2.2,0.5,3.7,0.5h0.3h0.9c1.9,0,4.1,0,5.1-1.7c0.3,0.5,0.8,0.9,1.4,1.2
	c1,0.4,2.2,0.5,3.7,0.5h0.3h0.9c2.5,0,5.6,0,5.6-3.7c0-0.5-0.1-1-0.1-1.5h2.4V6.7z M581.1,1.6c1.7,0,3.3,2.7,4.1,5.2h-1.9v-1h-4.7v1
	h-1.6C577.7,4.2,579.4,1.6,581.1,1.6z M569.8,1.6c1.7,0,3.3,2.7,4.1,5.2h-2.1v-1h-4.7v1h-1.5C566.4,4.2,568.1,1.6,569.8,1.6z
	 M558.5,1.6c1.7,0,3.3,2.7,4.1,5.2h-1.7v-1h-4.7v1h-1.9C555.1,4.2,556.8,1.6,558.5,1.6z M559,11.4h-0.6h-0.6c-1.3,0-2.4-0.1-3.1-0.4
	c-0.5-0.2-0.9-0.6-0.9-1.8c0-0.4,0.1-0.9,0.2-1.5h2.2v1h4.7v-1h1.9c0.1,0.5,0.2,1.1,0.2,1.5C563,11.1,562.1,11.4,559,11.4z
	 M570.3,11.4h-0.6h-0.6c-1.3,0-2.4-0.1-3.1-0.4c-0.5-0.2-0.9-0.6-0.9-1.8c0-0.4,0.1-0.9,0.2-1.5h1.8v1h4.7v-1h2.3
	c0.1,0.5,0.2,1.1,0.2,1.5C574.3,11.1,573.4,11.4,570.3,11.4z M585.6,9.3c0,1.8-0.9,2.1-4,2.1h-0.6h-0.6c-1.3,0-2.4-0.1-3.1-0.4
	c-0.5-0.2-0.9-0.6-0.9-1.8c0-0.4,0.1-0.9,0.2-1.5h1.9v1h4.7v-1h2.2C585.6,8.3,585.6,8.8,585.6,9.3z"/>
</svg>
