<?xml version="1.0" encoding="utf-8"?>
<!-- Generator: Adobe Illustrator 19.1.0, SVG Export Plug-In . SVG Version: 6.00 Build 0)  -->
<svg version="1.1" id="Layer_1" xmlns="http://www.w3.org/2000/svg" xmlns:xlink="http://www.w3.org/1999/xlink" x="0px" y="0px"
	 width="314.7px" height="35px" viewBox="0 0 314.7 35" style="enable-background:new 0 0 314.7 35;" xml:space="preserve">
<style type="text/css">
	.st0{fill:#C31230;}
	.st1{fill:none;stroke:#7E8081;stroke-width:1.0684;}
	.st2{clip-path:url(#SVGID_2_);fill:url(#SVGID_3_);}
	.st3{fill:#7E8081;}
</style>
<g>
	<path class="st0" d="M7.9,7.1C7.9,6.8,7.5,5.8,6,5.8c-1.7,0-2.3,1.3-2.3,2.6c0,1.3,0.6,2.6,2.3,2.6c1.2,0,1.7-0.7,2-1.6h3.6
		c0,1.9-2,3.9-5.5,3.9C2.2,13.2,0,11.1,0,8.3c0-2.9,2.4-4.9,6.1-4.9c3.3,0,5.1,1.4,5.5,3.7H7.9z"/>
	<polygon class="st0" points="28.7,3.7 32.4,3.7 32.4,10.6 37.7,10.6 37.7,13 28.7,13 	"/>
	<path class="st0" d="M58.2,3.7h3.6l4.4,9.4h-3.8l-0.5-1.3H58L57.5,13h-3.7L58.2,3.7z M61.1,9.7L60,6.8h0l-1.2,2.9H61.1z"/>
	<path class="st0" d="M82.6,3.7h7.1c2.1,0,3.9,0.9,3.9,2.7c0,1-0.6,2-1.8,2.3c1,0.3,1.6,1.2,1.8,2.3c0.1,0.5,0.1,1.6,0.4,2h-3.7
		c-0.2-0.5-0.3-1-0.3-1.4c-0.1-0.9-0.2-1.8-1.7-1.8h-2V13h-3.7V3.7z M86.3,7.7h1.9c0.7,0,1.6-0.1,1.6-0.9c0-0.6-0.4-0.9-1.8-0.9
		h-1.7V7.7z"/>
	<rect x="110.6" y="3.7" class="st0" width="3.7" height="9.4"/>
	<polygon class="st0" points="134.6,6.1 131.2,6.1 131.2,3.7 141.7,3.7 141.7,6.1 138.3,6.1 138.3,13 134.6,13 	"/>
	<polygon class="st0" points="161.3,9.6 157.1,3.7 161.2,3.7 163.2,7.1 165.3,3.7 169.3,3.7 165,9.6 165,13 161.3,13 	"/>
	<polygon class="st0" points="170.6,3.6 172.6,3.6 172.6,3.9 171.8,3.9 171.8,5.7 171.4,5.7 171.4,3.9 170.6,3.9 	"/>
	<polygon class="st0" points="172.8,3.6 173.5,3.6 174.1,5.3 174.1,5.3 174.8,3.6 175.4,3.6 175.4,5.7 175,5.7 175,4.1 175,4.1 
		174.3,5.7 173.9,5.7 173.3,4.1 173.3,4.1 173.3,5.7 172.8,5.7 	"/>
	<line class="st1" x1="187.6" y1="0" x2="187.6" y2="18.6"/>
	<g>
		<defs>
			<path id="SVGID_1_" d="M205.3,5.4l2.6,4.9h-5.3L205.3,5.4z M205.1,2.5L197.8,16h1.7l2.4-4.4h6.7L211,16h1.7l-7.2-13.5H205.1z
				 M214.7,2.5v1.3h1.5v0h1.1c2.2,0,3.8,0.1,4.8,0.4c1.3,0.3,2.3,1,3,1.9c0.7,0.9,1.1,2,1.1,3.3c0,1.2-0.3,2.3-1,3.1
				c-0.7,0.9-1.6,1.5-2.8,1.8c-0.8,0.2-2.3,0.3-4.5,0.3l-3.3,0V16h4.9c1.9,0,3.4-0.2,4.5-0.7c1.1-0.5,1.9-1.2,2.6-2.3
				c0.7-1,1-2.2,1-3.6c0-1.6-0.4-2.9-1.3-4c-0.8-1.1-2-1.9-3.5-2.4c-1-0.3-2.7-0.5-5-0.5H214.7z M241.2,2.5l-5.2,10.4l-5.1-10.4
				h-1.7l6.7,13.5h0.3l6.7-13.5H241.2z M248.5,5.4l2.6,4.9h-5.3L248.5,5.4z M248.3,2.5L241,16h1.7l2.4-4.4h6.7l2.4,4.4h1.7
				l-7.2-13.5H248.3z M268.6,2.5v10.3L258.3,2.5h-0.3V16h1.6V5.8L269.8,16h0.3V2.5H268.6z M290.6,2.5V16h8.8v-1.3h-7.3V9.4h7.3V8.1
				h-7.3V3.9h7.3V2.5H290.6z M301.6,2.5v1.3h1.5v0h1.1c2.2,0,3.8,0.1,4.8,0.4c1.3,0.3,2.3,1,3,1.9c0.7,0.9,1.1,2,1.1,3.3
				c0,1.2-0.3,2.3-1,3.1c-0.7,0.9-1.6,1.5-2.8,1.8c-0.8,0.2-2.3,0.3-4.5,0.3l-3.3,0V16h4.9c1.9,0,3.4-0.2,4.5-0.7
				c1.1-0.5,1.9-1.2,2.6-2.3c0.7-1,1-2.2,1-3.6c0-1.6-0.4-2.9-1.3-4c-0.8-1.1-2-1.9-3.5-2.4c-1-0.3-2.7-0.5-5-0.5H301.6z M275.1,4.2
				c-1.6,1.3-2.4,3-2.4,5c0,1.9,0.7,3.5,2,4.8c1.6,1.6,3.7,2.4,6.4,2.4c1.4,0,2.7-0.2,3.9-0.7c1.2-0.5,2.1-1.1,2.9-2l-1.2-0.8
				c-1.5,1.5-3.3,2.2-5.4,2.2c-2,0-3.6-0.5-4.9-1.6c-1.3-1.1-1.9-2.5-1.9-4.1c0-1.1,0.3-2.1,0.9-2.9s1.4-1.6,2.4-2.1
				c1.1-0.5,2.2-0.8,3.4-0.8c1.1,0,2.2,0.2,3.1,0.6c0.9,0.4,1.8,1,2.4,1.7l1.2-0.8c-0.7-0.9-1.7-1.6-2.9-2.1
				c-1.2-0.5-2.5-0.7-3.9-0.7C278.7,2.2,276.7,2.9,275.1,4.2"/>
		</defs>
		<clipPath id="SVGID_2_">
			<use xlink:href="#SVGID_1_"  style="overflow:visible;"/>
		</clipPath>
		
			<linearGradient id="SVGID_3_" gradientUnits="userSpaceOnUse" x1="-148.1395" y1="323.8812" x2="-147.1354" y2="323.8812" gradientTransform="matrix(116.4373 0 0 -116.4373 17446.7324 37721.125)">
			<stop  offset="0" style="stop-color:#8FC2E9"/>
			<stop  offset="0.5661" style="stop-color:#008EC4"/>
			<stop  offset="0.8247" style="stop-color:#006D9D"/>
			<stop  offset="1" style="stop-color:#005480"/>
		</linearGradient>
		<rect x="197.8" y="2.2" class="st2" width="116.9" height="14.1"/>
	</g>
	<path class="st0" d="M74.5,34.6h-1v-0.8h0c-0.5,0.6-1.2,1-2,1c-1.7,0-2.8-1.5-2.8-3.1c0-1.7,1.1-3.1,2.8-3.1c0.8,0,1.5,0.4,2,1h0
		v-0.8h1V34.6z M69.7,31.6c0,1.1,0.7,2.2,1.9,2.2c1.3,0,2-1,2-2.2c0-1.2-0.7-2.1-2-2.1C70.4,29.5,69.7,30.5,69.7,31.6"/>
	<path class="st0" d="M81.9,33.8L81.9,33.8c-0.5,0.6-1.2,1-2,1c-1.7,0-2.8-1.5-2.8-3.1c0-1.7,1.1-3.1,2.8-3.1c0.8,0,1.5,0.4,2,1h0
		v-5.3h1v10.3h-1V33.8z M78.1,31.6c0,1.1,0.7,2.2,1.9,2.2c1.3,0,2-1,2-2.2c0-1.2-0.7-2.1-2-2.1C78.8,29.5,78.1,30.5,78.1,31.6"/>
	<polygon class="st0" points="88,32.7 89.7,28.8 90.8,28.8 88,35 85.1,28.8 86.2,28.8 	"/>
	<path class="st0" d="M98.4,34.6h-1v-0.8h0c-0.5,0.6-1.2,1-2,1c-1.7,0-2.8-1.5-2.8-3.1c0-1.7,1.1-3.1,2.8-3.1c0.8,0,1.5,0.4,2,1h0
		v-0.8h1V34.6z M93.6,31.6c0,1.1,0.7,2.2,1.9,2.2c1.3,0,2-1,2-2.2c0-1.2-0.7-2.1-2-2.1C94.3,29.5,93.6,30.5,93.6,31.6"/>
	<path class="st0" d="M102.5,29.5L102.5,29.5c0.4-0.6,1-0.9,1.7-0.9c1.6,0,2,1.2,2,2.5v3.5h-1v-3.3c0-0.9-0.1-1.8-1.2-1.8
		c-1.4,0-1.5,1.3-1.5,2.3v2.8h-1v-5.9h1V29.5z"/>
	<path class="st0" d="M113.7,30.5L113.7,30.5c-0.5-0.6-1.1-1-1.8-1c-1.2,0-2.1,1-2.1,2.2c0,1.2,0.8,2.2,2,2.2c0.8,0,1.4-0.4,1.9-1h0
		v1.3c-0.6,0.4-1.2,0.6-1.9,0.6c-1.8,0-3.1-1.3-3.1-3.1c0-1.7,1.4-3.1,3.1-3.1c0.6,0,1.3,0.2,1.8,0.6V30.5z"/>
	<path class="st0" d="M117,31.9c0,1.1,0.8,2,1.9,2c0.8,0,1.4-0.5,1.8-1.2l0.8,0.5c-0.6,1-1.5,1.6-2.7,1.6c-1.7,0-2.9-1.3-2.9-3
		c0-1.7,1-3.2,2.8-3.2c1.9,0,2.9,1.6,2.8,3.3H117z M120.5,31c-0.1-0.8-0.8-1.5-1.7-1.5c-0.9,0-1.7,0.7-1.8,1.5H120.5z"/>
	<path class="st0" d="M128.6,33.8L128.6,33.8c-0.5,0.6-1.2,1-2,1c-1.7,0-2.8-1.5-2.8-3.1c0-1.7,1.1-3.1,2.8-3.1c0.8,0,1.5,0.4,2,1h0
		v-5.3h1v10.3h-1V33.8z M124.7,31.6c0,1.1,0.7,2.2,1.9,2.2c1.3,0,2-1,2-2.2c0-1.2-0.7-2.1-2-2.1C125.5,29.5,124.7,30.5,124.7,31.6"
		/>
	<path class="st3" d="M142.1,30.5L142.1,30.5c-0.5-0.6-1.1-1-1.8-1c-1.2,0-2.1,1-2.1,2.2c0,1.2,0.8,2.2,2,2.2c0.8,0,1.4-0.4,1.9-1h0
		v1.3c-0.6,0.4-1.2,0.6-1.9,0.6c-1.8,0-3.1-1.3-3.1-3.1c0-1.7,1.4-3.1,3.1-3.1c0.6,0,1.3,0.2,1.8,0.6V30.5z"/>
	<path class="st3" d="M145.4,31.9c0,1.1,0.8,2,1.9,2c0.8,0,1.4-0.5,1.8-1.2l0.8,0.5c-0.6,1-1.5,1.6-2.7,1.6c-1.7,0-2.9-1.3-2.9-3
		c0-1.7,1-3.2,2.8-3.2c1.9,0,2.9,1.6,2.8,3.3H145.4z M149,31c-0.1-0.8-0.8-1.5-1.7-1.5c-0.9,0-1.7,0.7-1.8,1.5H149z"/>
	<path class="st3" d="M153.6,29.4L153.6,29.4c0.4-0.5,0.7-0.8,1.3-0.8c0.3,0,0.6,0.1,0.9,0.3l-0.5,0.9c-0.2-0.1-0.3-0.3-0.6-0.3
		c-1.1,0-1.1,1.4-1.1,2.2v2.9h-1v-5.9h1V29.4z"/>
	<path class="st3" d="M163.4,34.6h-1v-0.8h0c-0.5,0.6-1.2,1-2,1c-1.7,0-2.8-1.5-2.8-3.1c0-1.7,1.1-3.1,2.8-3.1c0.8,0,1.5,0.4,2,1h0
		v-0.8h1V34.6z M158.6,31.6c0,1.1,0.7,2.2,1.9,2.2c1.3,0,2-1,2-2.2c0-1.2-0.7-2.1-2-2.1C159.3,29.5,158.6,30.5,158.6,31.6"/>
	<path class="st3" d="M167.5,29.4L167.5,29.4c0.3-0.5,0.8-0.8,1.4-0.8c0.7,0,1.3,0.4,1.6,1c0.3-0.6,1-1,1.8-1c1.5,0,1.9,1.2,1.9,2.5
		v3.6h-1v-3.4c0-0.8-0.1-1.7-1.1-1.7c-1.1,0-1.3,1.1-1.3,2v3.1h-1v-3.3c0-0.7-0.1-1.8-1-1.8c-1.2,0-1.3,1.2-1.3,2.1v3h-1v-5.9h1
		V29.4z"/>
	<path class="st3" d="M178.7,26.5c0,0.4-0.3,0.7-0.7,0.7c-0.4,0-0.7-0.3-0.7-0.7c0-0.4,0.3-0.7,0.7-0.7
		C178.4,25.8,178.7,26.2,178.7,26.5 M178.5,34.6h-1v-5.9h1V34.6z"/>
	<path class="st3" d="M186.2,30.5L186.2,30.5c-0.5-0.6-1.1-1-1.8-1c-1.2,0-2.1,1-2.1,2.2c0,1.2,0.8,2.2,2,2.2c0.8,0,1.4-0.4,1.9-1h0
		v1.3c-0.6,0.4-1.2,0.6-1.9,0.6c-1.8,0-3.1-1.3-3.1-3.1c0-1.7,1.4-3.1,3.1-3.1c0.6,0,1.3,0.2,1.8,0.6V30.5z"/>
	<path class="st3" d="M194.1,24.3h1v5.3h0c0.5-0.6,1.2-1,2-1c1.7,0,2.8,1.4,2.8,3.1c0,1.6-1.1,3.1-2.8,3.1c-0.8,0-1.5-0.3-2-1h0v0.8
		h-1V24.3z M195,31.6c0,1.1,0.7,2.2,1.9,2.2c1.3,0,2-1,2-2.2c0-1.2-0.7-2.1-2-2.1C195.7,29.5,195,30.5,195,31.6"/>
	<path class="st3" d="M203.5,29.4L203.5,29.4c0.4-0.5,0.7-0.8,1.3-0.8c0.3,0,0.6,0.1,0.9,0.3l-0.5,0.9c-0.2-0.1-0.3-0.3-0.6-0.3
		c-1.1,0-1.1,1.4-1.1,2.2v2.9h-1v-5.9h1V29.4z"/>
	<path class="st3" d="M213.3,34.6h-1v-0.8h0c-0.5,0.6-1.2,1-2,1c-1.7,0-2.8-1.5-2.8-3.1c0-1.7,1.1-3.1,2.8-3.1c0.8,0,1.5,0.4,2,1h0
		v-0.8h1V34.6z M208.5,31.6c0,1.1,0.7,2.2,1.9,2.2c1.3,0,2-1,2-2.2c0-1.2-0.7-2.1-2-2.1C209.2,29.5,208.5,30.5,208.5,31.6"/>
	<path class="st3" d="M220.8,30.5L220.8,30.5c-0.5-0.6-1.1-1-1.8-1c-1.2,0-2.1,1-2.1,2.2c0,1.2,0.8,2.2,2,2.2c0.8,0,1.4-0.4,1.9-1h0
		v1.3c-0.6,0.4-1.2,0.6-1.9,0.6c-1.8,0-3.1-1.3-3.1-3.1c0-1.7,1.4-3.1,3.1-3.1c0.6,0,1.3,0.2,1.8,0.6V30.5z"/>
	<polygon class="st3" points="224.5,30.9 226.7,28.8 228,28.8 225.5,31.2 228.5,34.6 227.2,34.6 224.8,31.9 224.5,32.2 224.5,34.6 
		223.5,34.6 223.5,24.3 224.5,24.3 	"/>
	<path class="st3" d="M231.2,31.9c0,1.1,0.8,2,1.9,2c0.8,0,1.4-0.5,1.8-1.2l0.8,0.5c-0.6,1-1.5,1.6-2.7,1.6c-1.7,0-2.9-1.3-2.9-3
		c0-1.7,1-3.2,2.8-3.2c1.9,0,2.9,1.6,2.8,3.3H231.2z M234.7,31c-0.1-0.8-0.8-1.5-1.7-1.5c-0.9,0-1.7,0.7-1.8,1.5H234.7z"/>
	<polygon class="st3" points="239.5,34.6 238.5,34.6 238.5,29.7 237.9,29.7 237.9,28.8 238.5,28.8 238.5,26.6 239.5,26.6 
		239.5,28.8 240.5,28.8 240.5,29.7 239.5,29.7 	"/>
	<path class="st3" d="M245,30.1c-0.1-0.3-0.4-0.6-0.8-0.6c-0.3,0-0.7,0.3-0.7,0.6c0,0.5,0.7,0.7,1.4,1c0.7,0.3,1.4,0.7,1.4,1.7
		c0,1.1-0.9,1.9-2,1.9c-1,0-1.8-0.6-2.1-1.5l0.9-0.4c0.2,0.5,0.5,0.9,1.2,0.9c0.5,0,0.9-0.4,0.9-0.9c0-1.3-2.6-0.9-2.6-2.7
		c0-1,0.8-1.7,1.7-1.7c0.7,0,1.3,0.5,1.6,1.1L245,30.1z"/>
</g>
</svg>
