<?xml version="1.0" encoding="utf-8"?>
<!-- Generator: Adobe Illustrator 19.1.0, SVG Export Plug-In . SVG Version: 6.00 Build 0)  -->
<svg version="1.1" id="Layer_1" xmlns="http://www.w3.org/2000/svg" xmlns:xlink="http://www.w3.org/1999/xlink" x="0px" y="0px"
	 width="315px" height="72.3px" viewBox="0 0 315 72.3" style="enable-background:new 0 0 315 72.3;" xml:space="preserve">
<style type="text/css">
	.st0{fill:#1C6CA2;}
	.st1{fill:#2180B3;}
	.st2{fill:#299FC0;}
	.st3{fill:#1E68A1;}
</style>
<g>
	<g>
		<g>
			<g>
				<g>
					<path class="st0" d="M41.9,41c0,0-0.4,14.2,19.8,19.8C55.9,40.6,41.9,41,41.9,41z"/>
					<path class="st0" d="M30.4,29.6c0,0,0.4-14.2-19.8-19.8C16.4,29.9,30.4,29.6,30.4,29.6z"/>
				</g>
				<g>
					<g>
						<path class="st0" d="M36.2,44.3c0,0-10.3,9.8,0,28C46.3,53.9,36.2,44.3,36.2,44.3z"/>
						<path class="st0" d="M36.1,28c0,0,10.3-9.8,0-28C26,18.4,36.1,28,36.1,28z"/>
					</g>
					<g>
						<path class="st0" d="M44.3,36.1c0,0,9.8,10.3,28,0C53.9,26,44.3,36.1,44.3,36.1z"/>
						<path class="st0" d="M28,36.2c0,0-9.8-10.3-28,0C18.4,46.3,28,36.2,28,36.2z"/>
					</g>
				</g>
				<g>
					<path class="st0" d="M41.9,29.5c0,0,14.2,0.4,19.8-19.8C41.5,15.5,41.9,29.5,41.9,29.5z"/>
					<path class="st0" d="M30.4,41c0,0-14.2-0.4-19.8,19.8C30.8,55,30.4,41,30.4,41z"/>
				</g>
			</g>
			<g>
				<path class="st1" d="M57.5,51.2C51,40.7,41.9,41,41.9,41s-0.2,9.3,10.3,15.8C54.3,55.2,56.1,53.3,57.5,51.2z"/>
				<path class="st1" d="M30.4,29.6c0,0,0.2-8.5-9.1-15c-2.3,1.6-4.3,3.5-6,5.7C21.9,29.8,30.4,29.6,30.4,29.6z"/>
				<path class="st1" d="M36.2,44.3c0,0-6.5,6.1-4,17.7c1.3,0.2,2.6,0.3,4,0.3c1.4,0,2.7-0.1,4-0.3C42.6,50.3,36.2,44.3,36.2,44.3z"
					/>
				<path class="st1" d="M36.1,28c0,0,6.5-6.1,4-17.7c-1.3-0.2-2.6-0.3-4-0.3c-1.4,0-2.7,0.1-4,0.3C29.7,22,36.1,28,36.1,28z"/>
				<path class="st1" d="M44.3,36.1c0,0,6.1,6.5,17.7,4c0.2-1.3,0.3-2.6,0.3-4c0-1.4-0.1-2.7-0.3-4C50.3,29.7,44.3,36.1,44.3,36.1z"
					/>
				<path class="st1" d="M28,36.2c0,0-6.1-6.5-17.7-4c-0.2,1.3-0.3,2.6-0.3,4c0,1.4,0.1,2.7,0.3,4C22,42.6,28,36.2,28,36.2z"/>
				<path class="st1" d="M41.9,29.5c0,0,8.6,0.2,15.1-9.2c-1.7-2.2-3.7-4.1-6-5.7C41.6,21.1,41.9,29.5,41.9,29.5z"/>
				<path class="st1" d="M30.4,41c0,0-9.2-0.2-15.7,10.2c1.5,2.1,3.3,4,5.3,5.6C30.7,50.2,30.4,41,30.4,41z"/>
			</g>
			<g>
				<path class="st2" d="M51.5,44.6c-5-3.7-9.6-3.6-9.6-3.6s-0.1,4.8,3.7,9.9C48.1,49.3,50.1,47.1,51.5,44.6z"/>
				<path class="st2" d="M30.4,29.6c0,0,0.1-4-2.9-8.7c-2.4,1.4-4.5,3.3-6,5.6C26.2,29.7,30.4,29.6,30.4,29.6z"/>
				<g>
					<path class="st2" d="M36.2,44.3c0,0-3.2,3-4.2,8.9c1.4,0.3,2.8,0.5,4.2,0.5c1.5,0,2.9-0.2,4.2-0.5
						C39.4,47.3,36.2,44.3,36.2,44.3z"/>
					<path class="st2" d="M36.1,28c0,0,3.2-3,4.2-8.9c-1.4-0.3-2.8-0.5-4.2-0.5c-1.5,0-2.9,0.2-4.2,0.5C32.9,25,36.1,28,36.1,28z"/>
				</g>
				<g>
					<path class="st2" d="M53.1,31.9c-5.9,1-8.9,4.2-8.9,4.2s3,3.2,8.9,4.2c0.3-1.4,0.5-2.8,0.5-4.2C53.7,34.7,53.5,33.3,53.1,31.9z
						"/>
					<path class="st2" d="M28,36.2c0,0-3-3.2-8.9-4.2c-0.3,1.4-0.5,2.8-0.5,4.2c0,1.5,0.2,2.9,0.5,4.2C25,39.4,28,36.2,28,36.2z"/>
				</g>
				<path class="st2" d="M44.8,20.9c-3,4.6-2.9,8.6-2.9,8.6s4.2,0.1,8.9-3C49.2,24.2,47.2,22.3,44.8,20.9z"/>
				<path class="st2" d="M30.4,41c0,0-4.6-0.1-9.7,3.6c1.4,2.6,3.4,4.7,5.9,6.3C30.6,45.8,30.4,41,30.4,41z"/>
			</g>
		</g>
		<g>
			<g>
				<path class="st3" d="M205.7,48.2v-3.9c-1.1,1.2-2.4,2.1-3.8,2.7c-1.4,0.6-2.9,0.9-4.5,0.9c-3.7,0-6.8-1.2-9.3-3.7
					c-2.5-2.5-3.7-5.6-3.7-9.4c0-1.7,0.3-3.4,0.9-5c0.6-1.6,1.5-2.9,2.6-4.1c1.2-1.3,2.6-2.3,4.1-2.9c1.5-0.6,3.2-0.9,5.1-0.9
					c1.7,0,3.3,0.3,4.7,0.9c1.4,0.6,2.7,1.5,3.9,2.7v-3h4.9v25.6H205.7z M189.5,34.8c0,2.4,0.8,4.3,2.3,5.9c1.6,1.6,3.5,2.4,5.7,2.4
					c2.1,0,3.9-0.8,5.4-2.4c1.6-1.6,2.4-3.5,2.4-5.6c0-2.3-0.8-4.2-2.3-5.9c-1.6-1.6-3.4-2.5-5.6-2.5c-2.2,0-4.1,0.8-5.6,2.3
					C190.3,30.7,189.5,32.6,189.5,34.8z"/>
				<path class="st3" d="M258,59.3c-5.4,2.5-14.1-1.6-14.1-1.6l2.1-4.8c0,0,4.2,2.8,9.9,1.3c5.5-2.2,5-7,5-7v-3
					c-1.1,1.2-2.4,2.1-3.8,2.7c-1.4,0.6-2.9,0.9-4.5,0.9c-3.7,0-6.8-1.2-9.3-3.7c-2.5-2.5-3.7-5.6-3.7-9.4c0-1.7,0.3-3.4,0.9-5
					c0.6-1.6,1.5-2.9,2.6-4.1c1.2-1.3,2.6-2.3,4.1-2.9c1.5-0.6,3.2-0.9,5.1-0.9c1.7,0,3.3,0.3,4.7,0.9c1.4,0.6,2.7,1.5,3.9,2.7v-3
					h4.9c0,0,0,22.3,0,24.8C265.9,52.5,263.5,56.8,258,59.3z M244.8,34.8c0,2.4,0.8,4.3,2.3,5.9c1.6,1.6,3.5,2.4,5.7,2.4
					c2.1,0,3.9-0.8,5.4-2.4c1.6-1.6,2.4-3.5,2.4-5.6c0-2.3-0.8-4.2-2.3-5.9c-1.6-1.6-3.4-2.5-5.5-2.5c-2.2,0-4.1,0.8-5.6,2.3
					C245.6,30.7,244.8,32.6,244.8,34.8z"/>
				<path class="st3" d="M277.6,48.2h-4.7V22.4h4.3v2.8c0.9-1.1,2.1-1.9,3.2-2.4c1.1-0.5,2.4-0.8,3.9-0.8c3.3,0,5.8,1,7.5,2.9
					c1.7,1.9,2.6,4.7,2.6,8.2v15.1h-4.8V34.1c0-2.6-0.5-4.6-1.5-5.9c-1-1.3-2.5-1.9-4.5-1.9c-2.2,0-3.5,0.8-4.5,2.3
					c-1,1.5-1.5,4-1.5,7.5V48.2z"/>
				<path class="st2" d="M106.9,48.2h-4.7V22.4h4.3v2.8c0.9-1.1,2.1-1.9,3.2-2.4c1.1-0.5,2.4-0.8,3.9-0.8c3.3,0,5.8,1,7.5,2.9
					c1.7,1.9,2.6,4.7,2.6,8.2v15.1h-4.8V34.1c0-2.6-0.5-4.6-1.5-5.9c-1-1.3-2.5-1.9-4.5-1.9c-2.2,0-3.5,0.8-4.5,2.3
					c-1,1.5-1.5,4-1.5,7.5V48.2z"/>
				<g>
					<path class="st3" d="M230.3,48.2V22.3h5.4v25.9H230.3z"/>
					<path class="st3" d="M229.3,14.2c0-2.1,1.7-3.8,3.8-3.8c2.1,0,3.8,1.7,3.8,3.8c0,2.1-1.7,3.8-3.8,3.8
						C230.9,18,229.3,16.3,229.3,14.2z"/>
				</g>
				<path class="st3" d="M217.7,48.2V10.7h5.4v37.4H217.7z"/>
				<path class="st2" d="M153.5,48.2V22.3h5.4v25.9H153.5z"/>
				<circle class="st2" cx="156.2" cy="14.2" r="3.8"/>
				<path class="st2" d="M89.5,48.2V22.3h5.4v25.9H89.5z"/>
				<circle class="st2" cx="92.2" cy="14.2" r="3.8"/>
				<polygon class="st2" points="125.3,22.3 131.4,22.3 137.9,36.5 145,22.3 151.2,22.3 137.8,48.2 				"/>
				<path class="st2" d="M173.5,32.9c-1.9-0.6-4.5-1.6-4.5-3.1c0-1.6,1.1-2.6,3.3-2.9c1.9-0.3,4.1,0.8,4.6,1.4l2.6-4.1
					c-1.9-1.2-5-2.4-8-2c-4.7,0.6-7.7,3.6-7.7,7.6c0,5,6,6.9,7.9,7.6c3.1,1,4.2,1.8,4.2,3.2c0,2.6-3.4,2.8-4.5,2.8
					c-2,0-4.8-1.3-5.7-1.8l-2.6,4.1c0.5,0.2,4.6,2.4,8.3,2.4c4.6,0,9.6-2.4,9.6-7.6C181.1,35.4,175.5,33.6,173.5,32.9z"/>
			</g>
			<g>
				<g>
					<path class="st0" d="M309.4,22.1c-3.1,0-5.6,2.5-5.6,5.5c0,3.1,2.5,5.6,5.6,5.6c3.1,0,5.6-2.5,5.6-5.6
						C315,24.6,312.5,22.1,309.4,22.1z M314,27.6c0,2.5-2,4.6-4.6,4.6c-2.5,0-4.6-2-4.6-4.6c0-2.5,2-4.6,4.6-4.6
						C312,23.1,314,25.1,314,27.6z"/>
				</g>
				<path class="st0" d="M307.3,24.8c0.4-0.1,1.1-0.1,1.7-0.1c0.9,0,1.5,0.1,2,0.5c0.3,0.2,0.5,0.6,0.5,1c0,0.7-0.6,1.2-1.3,1.4v0
					c0.5,0.1,0.8,0.5,1,1.1c0.2,0.8,0.4,1.3,0.5,1.5h-0.9c-0.1-0.1-0.3-0.6-0.4-1.3c-0.2-0.8-0.6-1-1.4-1.1h-0.8v2.4h-0.9V24.8z
					 M308.2,27.3h0.9c0.9,0,1.5-0.4,1.5-1c0-0.7-0.6-1-1.6-1c-0.4,0-0.7,0-0.9,0.1V27.3z"/>
			</g>
		</g>
	</g>
</g>
</svg>
