<?xml version="1.0" encoding="utf-8"?>
<!-- Generator: Adobe Illustrator 16.0.0, SVG Export Plug-In . SVG Version: 6.00 Build 0)  -->
<!DOCTYPE svg PUBLIC "-//W3C//DTD SVG 1.1//EN" "http://www.w3.org/Graphics/SVG/1.1/DTD/svg11.dtd">
<svg version="1.1" id="Layer_1" xmlns="http://www.w3.org/2000/svg" xmlns:xlink="http://www.w3.org/1999/xlink" x="0px" y="0px"
	 width="159.725px" height="19px" viewBox="0 0 159.725 19" enable-background="new 0 0 159.725 19" xml:space="preserve">
<g>
	<path d="M11.067,17.044L0,0h4.615l9.697,14.866c0.035,0.109,0.289,0.218,0.397,0.218h2.488c0.105,0,0.359-0.108,0.396-0.218
		L27.292,0h4.613L20.838,17.044C20.118,18.165,18.603,19,17.27,19h-2.632C13.303,19,11.787,18.165,11.067,17.044"/>
	<path d="M32.27,5.401C32.27,2.43,34.686,0,37.643,0h13.95v3.916h-13.95c-0.83,0-1.479,0.652-1.479,1.485V19H32.27V5.401z"/>
	<path d="M53.758,13.599V5.401C53.758,2.43,56.175,0,59.132,0h18.892c2.956,0,5.371,2.43,5.371,5.401v8.197
		c0,2.972-2.415,5.401-5.371,5.401H59.132C56.175,19,53.758,16.57,53.758,13.599 M57.653,5.401v8.197
		c0,0.833,0.648,1.485,1.479,1.485h18.892c0.83,0,1.479-0.652,1.479-1.485V5.401c0-0.833-0.649-1.485-1.479-1.485H59.132
		C58.302,3.916,57.653,4.568,57.653,5.401"/>
	<path d="M85.922,13.599V5.401C85.922,2.43,88.337,0,91.293,0h18.892c2.959,0,5.373,2.43,5.373,5.401v8.197
		c0,2.972-2.414,5.401-5.373,5.401H91.293C88.337,19,85.922,16.57,85.922,13.599 M89.814,5.401v8.197
		c0,0.833,0.647,1.485,1.479,1.485h18.892c0.83,0,1.479-0.652,1.479-1.485V5.401c0-0.833-0.648-1.485-1.479-1.485H91.293
		C90.462,3.916,89.814,4.568,89.814,5.401"/>
	<path d="M155.866,5.401c0-0.833-0.686-1.485-1.512-1.485h-12.007c-0.829,0-1.515,0.652-1.515,1.485V19h-3.857V5.401
		c0-0.833-0.686-1.485-1.514-1.485h-13.484V19h-3.895V0h17.379c0.864,0,1.693,0.218,2.451,0.616c0.36,0.183,0.686,0.399,1.009,0.651
		c0.29-0.252,0.613-0.469,0.974-0.651C140.652,0.218,141.481,0,142.348,0h12.007c2.955,0,5.37,2.43,5.37,5.401V19h-3.858V5.401z"/>
</g>
</svg>
