<?xml version="1.0" encoding="utf-8"?>
<!-- Generator: Adobe Illustrator 14.0.0, SVG Export Plug-In . SVG Version: 6.00 Build 43363)  -->
<!DOCTYPE svg PUBLIC "-//W3C//DTD SVG 1.1//EN" "http://www.w3.org/Graphics/SVG/1.1/DTD/svg11.dtd">
<svg version="1.1" id="Layer_1" xmlns="http://www.w3.org/2000/svg" xmlns:xlink="http://www.w3.org/1999/xlink" x="0px" y="0px"
	 width="44.175px" height="51px" viewBox="0 0 44.175 51" enable-background="new 0 0 44.175 51" xml:space="preserve">
<g>
	<g>
		<g>
			<g id="XMLID_1_">
				<g>
					<path fill="#F2C052" d="M42.955,13.432l0.019,24.104l-20.86,12.062L1.228,37.568L1.207,13.465L22.073,1.402L42.955,13.432z
						 M41.403,36.631L41.39,14.338L22.173,3.262l-0.1-0.053L2.781,14.369l0.008,22.293l19.217,11.079l0.1,0.05L41.403,36.631z"/>
					<polygon fill="#F2C052" points="40.987,14.571 40.998,36.404 22.105,47.336 3.188,36.432 3.186,14.595 22.073,3.664 					"/>
					<path d="M42.972,37.535l-0.018-24.104L22.073,1.402L1.207,13.465l0.021,24.104l20.884,12.029L42.972,37.535z M44.171,12.734
						l0.004,25.5L22.111,51l-22.1-12.734L0,12.766L22.073,0L44.171,12.734z"/>
					<path d="M40.998,36.404l-0.011-21.833L22.073,3.664L3.186,14.595l0.002,21.837l18.918,10.903L40.998,36.404z M41.39,14.338
						l0.014,22.293l-19.298,11.16l-0.1-0.05L2.789,36.662L2.781,14.369l19.292-11.16l0.1,0.053L41.39,14.338z"/>
				</g>
			</g>
		</g>
	</g>
	<path d="M17.587,34.883L7.401,19.274h4.253l8.919,13.617c0.046,0.101,0.273,0.196,0.373,0.196h2.289
		c0.103,0,0.326-0.098,0.372-0.196l8.917-13.617h4.255L26.594,34.883c-0.669,1.021-2.063,1.791-3.285,1.791h-2.435
		C19.651,36.674,18.257,35.902,17.587,34.883"/>
</g>
</svg>
